<?xml version="1.0" encoding="UTF-8" standalone="no"?>
<!-- Created with Inkscape (http://www.inkscape.org/) -->

<svg
   version="1.1"
   id="svg2"
   xml:space="preserve"
   width="566.93335"
   height="566.93335"
   viewBox="0 0 566.93335 566.93335"
   sodipodi:docname="background.svg"
   inkscape:version="1.1 (c4e8f9ed74, 2021-05-24)"
   xmlns:inkscape="http://www.inkscape.org/namespaces/inkscape"
   xmlns:sodipodi="http://sodipodi.sourceforge.net/DTD/sodipodi-0.dtd"
   xmlns="http://www.w3.org/2000/svg"
   xmlns:svg="http://www.w3.org/2000/svg"><defs
     id="defs6" /><sodipodi:namedview
     id="namedview4"
     pagecolor="#ffffff"
     bordercolor="#666666"
     borderopacity="1.0"
     inkscape:pageshadow="2"
     inkscape:pageopacity="0.0"
     inkscape:pagecheckerboard="0"
     showgrid="false"
     inkscape:zoom="0.68972843"
     inkscape:cx="75.391991"
     inkscape:cy="399.43257"
     inkscape:window-width="1335"
     inkscape:window-height="736"
     inkscape:window-x="31"
     inkscape:window-y="0"
     inkscape:window-maximized="1"
     inkscape:current-layer="g10" /><g
     id="g8"
     inkscape:groupmode="layer"
     inkscape:label="ink_ext_XXXXXX"
     transform="matrix(1.3333333,0,0,-1.3333333,0,566.93333)"><g
       id="g10"
       transform="scale(0.1)"><path
         d="m -390.55553,3718.2686 v 38.19 l 4.90235,-2.72 c 6.42582,-3.55 9.16012,-10.8 6.09372,-16.19 l -10.99607,-19.28"
         style="fill:#0b0805;fill-opacity:1;fill-rule:nonzero;stroke:none"
         id="path14" /><path
         d="m -271.27806,325.30859 h -37.2853 l 0.008,0.0117 h 37.2855 l -0.008,-0.0117"
         style="fill:#4f4c4c;fill-opacity:1;fill-rule:nonzero;stroke:none"
         id="path28" /><path
         d="m 64.03394,851.20659 c -2.421,0 -4.961,0.633 -7.324,1.942 l -44.961,24.922 c -6.4059996,3.547 -9.1399996,10.797 -6.0539996,16.179 L 147.17894,1142.4176 c 1.949,3.403 5.738,5.243 9.879,5.243 2.41,0 4.937,-0.622 7.289,-1.93 l 8.32,-4.613 88.77,155.691 c -6.524,4.891 -12.403,10.648 -16.875,17.609 -48.125,58.131 48.125,196.701 48.125,196.701 8.886,9.98 17.91,19.9 27.148,29.67 9.238,9.8 18.613,19.51 28.438,28.97 -3.086,-13.2 -6.602,-26.15 -10.293,-39.01 -3.692,-12.86 -7.598,-25.61 -11.621,-38.29 0,0 -50.45,-88.5 -48.907,-120.14 1.387,-29.04 14.844,-37.73 22.266,-41.69 4.402,-2.37 12.195,-5.699 22.062,-5.699 6.727,0 14.415,1.549 22.645,5.999 30.02,16.25 81.094,107.28 82.129,108.56 8.828,10.03 17.871,19.91 27.109,29.7 9.278,9.77 18.692,19.46 28.672,28.83 -2.93,-13.28 -6.445,-26.25 -10.078,-39.13 -3.691,-12.86 -7.539,-25.63 -11.66,-38.26 -0.559,-1.52 -69.406,-144.761 -140.578,-144.761 -1.207,0 -2.414,0.043 -3.621,0.132 -9.434,0.649 -18.145,2.418 -26.485,5.379 l -88.906,-155.968 8.301,-4.602 c 6.426,-3.551 9.16,-10.809 6.094,-16.199 L 73.89794,856.44959 c -1.938,-3.403 -5.723,-5.243 -9.864,-5.243 m -15.879,48.25 c -3.343,0 -6.597,-1.726 -8.359,-4.816 -2.578,-4.543 -0.957,-10.301 3.652,-12.852 1.485,-0.82 3.098,-1.21 4.688,-1.21 3.355,0 6.609,1.73 8.359,4.82 2.578,4.539 0.957,10.289 -3.672,12.851 -1.476,0.821 -3.082,1.207 -4.668,1.207 m 122.231,217.81301 c -3.348,0 -6.602,-1.731 -8.363,-4.82 -2.578,-4.539 -0.938,-10.301 3.652,-12.852 1.488,-0.82 3.105,-1.219 4.695,-1.219 3.352,0 6.598,1.739 8.371,4.821 2.579,4.539 0.938,10.3 -3.671,12.859 -1.485,0.82 -3.094,1.211 -4.684,1.211"
         style="fill:#0b0805;fill-opacity:1;fill-rule:nonzero;stroke:none"
         id="path34" /><path
         d="m 522.38594,1501.5986 c -3.516,0 -6.777,1.39 -8.801,4.12 l -170.898,229.48 c -3.711,4.98 -1.895,12.5 4.062,16.8 l 7.656,5.56 -127.988,171.88 -50.371,-36.46 c -3.863,-2.8 -12.519,-6.43 -22.129,-6.43 -9.047,0 -18.937,3.21 -26.484,13.35 l -122.1099996,145.62 c -17.0500004,22.88 -4.33499996,38.45 3.204,43.9 l 151.0929996,109.38 c 6.203,4.49 12.723,7.19 19.321,7.19 9.832,0 19.828,-6 29.156,-21.02 l 97.558,-150.34 c 19.219,-28.15 2.11,-46.31 -5.429,-51.76 l -47.598,-34.46 127.988,-171.88 7.696,5.56 c 2.676,1.94 5.738,2.89 8.636,2.89 3.512,0 6.782,-1.4 8.825,-4.12 l 170.879,-229.49 c 3.691,-4.97 1.894,-12.49 -4.043,-16.78 l -41.563,-30.09 c -2.687,-1.95 -5.758,-2.9 -8.66,-2.9 m 12.617,49.95 c -1.965,0 -3.949,-0.59 -5.656,-1.82 -4.258,-3.09 -5.176,-9 -2.051,-13.2 1.875,-2.52 4.781,-3.86 7.734,-3.86 1.965,0 3.954,0.6 5.665,1.83 4.238,3.08 5.175,9 2.031,13.2 -1.875,2.52 -4.778,3.85 -7.723,3.85 m -150.781,199.66 c -1.969,0 -3.949,-0.6 -5.656,-1.83 -4.258,-3.08 -5.196,-9 -2.071,-13.21 1.883,-2.52 4.789,-3.85 7.731,-3.85 1.972,0 3.961,0.6 5.668,1.84 4.258,3.08 5.195,8.99 2.051,13.19 -1.875,2.53 -4.782,3.86 -7.723,3.86 m -318.613,336.62 c -3.629,0 -7.329,-1.12 -10.52,-3.43 -7.734,-5.61 -9.59,-16.1 -4.121,-23.44 l 92.051,-123.61 c 3.199,-4.31 8.215,-6.57 13.379,-6.57 3.636,0 7.343,1.12 10.547,3.43 7.734,5.61 9.57,16.1 4.101,23.43 l -92.051,123.62 c -3.211,4.31 -8.226,6.57 -13.386,6.57 m 48.078,34.8 c -3.629,0 -7.328,-1.12 -10.512,-3.43 -7.754,-5.61 -9.57,-16.09 -4.121,-23.43 l 92.051,-123.61 c 3.203,-4.31 8.218,-6.58 13.386,-6.58 3.629,0 7.329,1.12 10.52,3.43 7.734,5.6 9.57,16.1 4.102,23.43 l -92.032,123.61 c -3.211,4.31 -8.234,6.58 -13.394,6.58 m 48.078,34.8 c -3.625,0 -7.324,-1.12 -10.524,-3.43 -7.734,-5.6 -9.589,-16.09 -4.101,-23.43 l 92.031,-123.62 c 3.199,-4.3 8.219,-6.56 13.383,-6.56 3.629,0 7.332,1.11 10.523,3.42 7.754,5.6 9.571,16.1 4.121,23.43 l -92.05,123.61 c -3.211,4.31 -8.223,6.58 -13.383,6.58"
         style="fill:#0b0805;fill-opacity:1;fill-rule:nonzero;stroke:none"
         id="path36" /><path
         d="m 290.01094,3703.5186 c -81.836,0 -155.684,56.42 -164.746,130.06 -6.582,53.61 4.219,126.99 71.582,204.19 0,0 -7.578,-51.46 25.254,-74.71 0,0 -51.348,101.28 11.777,209.19 0,0 14.461,-61.13 29.063,-61.12 1.539,0 3.082,0.68 4.609,2.18 15.996,15.77 46.328,52.3 32.012,102.93 0,0 55.547,-43.99 33.672,-136.14 0,0 0.957,-0.15 2.632,-0.15 8.508,0 35.508,4.05 49.555,53.28 0,0 31.172,-33.2 0.84,-118.7 0,0 3.562,-1.68 9.156,-1.68 12.028,0 33.438,7.74 48.969,56.47 0,0 56.953,-77.95 29.453,-240.73 -13.457,-79.69 -101.992,-125.07 -183.828,-125.07 m -49.004,237.38 c -38.203,-40.58 -44.336,-79.16 -40.605,-107.36 5.136,-38.71 47.011,-68.37 93.437,-68.37 46.426,0 98.066,22.99 104.258,65.75 12.5,86.01 -16.699,126.57 -16.699,126.57 -8.801,-25.62 -20.938,-29.68 -27.758,-29.68 -3.172,0 -5.192,0.88 -5.192,0.88 17.188,44.94 -0.488,62.4 -0.488,62.4 -7.976,-25.88 -23.281,-28.01 -28.109,-28.01 -0.953,0 -1.5,0.08 -1.5,0.08 12.422,48.44 -19.102,71.57 -19.102,71.57 8.125,-26.62 -9.062,-45.82 -18.144,-54.12 -0.867,-0.78 -1.742,-1.14 -2.617,-1.14 -8.286,0 -16.485,32.13 -16.485,32.13 -35.82,-56.73 -6.68,-109.97 -6.68,-109.97 -18.632,12.22 -14.316,39.27 -14.316,39.27"
         style="fill:#0b0805;fill-opacity:1;fill-rule:nonzero;stroke:none"
         id="path42" /><path
         d="m 113.69494,2284.5886 c -2.415,0 -4.954,0.62 -7.317,1.94 l -44.98,24.91 c -6.407,3.55 -9.121,10.81 -6.035,16.18 l 141.484,248.17 c 1.937,3.4 5.723,5.25 9.863,5.25 2.414,0 4.945,-0.63 7.305,-1.94 l 8.301,-4.6 88.769,155.69 c -6.504,4.88 -12.402,10.64 -16.855,17.61 -48.145,58.13 48.125,196.7 48.125,196.7 8.867,9.97 17.91,19.89 27.148,29.67 9.238,9.79 18.613,19.51 28.438,28.97 -3.086,-13.2 -6.602,-26.16 -10.313,-39.01 -3.672,-12.87 -7.578,-25.62 -11.601,-38.29 0,0 -50.469,-88.51 -48.926,-120.15 1.406,-29.03 14.863,-37.73 22.285,-41.69 4.402,-2.36 12.195,-5.69 22.059,-5.69 6.722,0 14.406,1.54 22.628,5.99 30.02,16.25 81.114,107.28 82.149,108.56 8.828,10.04 17.851,19.92 27.109,29.7 9.278,9.77 18.672,19.46 28.672,28.84 -2.949,-13.28 -6.445,-26.25 -10.078,-39.13 -3.711,-12.87 -7.559,-25.63 -11.66,-38.27 -0.559,-1.52 -69.422,-144.75 -140.598,-144.75 -1.207,0 -2.414,0.04 -3.621,0.12 -9.433,0.65 -18.144,2.43 -26.465,5.39 l -88.926,-155.97 8.321,-4.61 c 6.426,-3.55 9.14,-10.81 6.074,-16.19 l -141.504,-248.17 c -1.933,-3.39 -5.715,-5.23 -9.851,-5.23 m -15.879,48.25 c -3.344,0 -6.59,-1.74 -8.352,-4.82 -2.598,-4.54 -0.957,-10.3 3.652,-12.85 1.485,-0.83 3.094,-1.22 4.684,-1.22 3.348,0 6.598,1.74 8.344,4.82 2.597,4.55 0.976,10.29 -3.653,12.86 -1.484,0.82 -3.089,1.21 -4.675,1.21 m 122.242,217.8 c -3.352,0 -6.606,-1.73 -8.367,-4.82 -2.578,-4.54 -0.938,-10.3 3.652,-12.85 1.492,-0.82 3.105,-1.21 4.695,-1.21 3.348,0 6.59,1.73 8.352,4.81 2.598,4.55 0.957,10.3 -3.652,12.86 -1.485,0.82 -3.094,1.21 -4.68,1.21"
         style="fill:#0b0805;fill-opacity:1;fill-rule:nonzero;stroke:none"
         id="path44" /><path
         d="m 572.04194,2934.9686 c -3.512,0 -6.765,1.4 -8.789,4.12 l -170.898,229.48 c -3.731,4.98 -1.895,12.5 4.043,16.8 l 7.675,5.56 -127.988,171.89 -50.371,-36.47 c -3.875,-2.8 -12.527,-6.43 -22.137,-6.43 -9.043,0 -18.929,3.22 -26.476,13.35 l -122.11,145.62 c -17.05,22.88 -4.336,38.46 3.184,43.91 l 151.113,109.38 c 6.196,4.48 12.711,7.18 19.305,7.18 9.832,0 19.832,-6 29.172,-21.01 l 97.558,-150.35 c 19.219,-28.15 2.11,-46.31 -5.429,-51.75 l -47.617,-34.47 128.007,-171.88 7.676,5.56 c 2.684,1.94 5.75,2.9 8.649,2.9 3.511,0 6.781,-1.4 8.812,-4.13 l 170.884,-229.49 c 3.71,-4.96 1.91,-12.48 -4.03,-16.78 l -41.561,-30.09 c -2.695,-1.95 -5.769,-2.9 -8.672,-2.9 m 12.629,49.96 c -1.965,0 -3.949,-0.59 -5.656,-1.83 -4.277,-3.09 -5.195,-9 -2.051,-13.2 1.875,-2.52 4.781,-3.85 7.731,-3.85 1.964,0 3.945,0.59 5.648,1.83 4.258,3.08 5.176,9 2.051,13.19 -1.875,2.53 -4.778,3.86 -7.723,3.86 m -150.793,199.65 c -1.965,0 -3.953,-0.59 -5.664,-1.83 -4.238,-3.08 -5.176,-8.99 -2.051,-13.2 1.883,-2.52 4.789,-3.85 7.727,-3.85 1.969,0 3.953,0.6 5.652,1.83 4.278,3.09 5.215,8.99 2.071,13.2 -1.887,2.52 -4.79,3.85 -7.735,3.85 m -318.605,336.62 c -3.625,0 -7.325,-1.12 -10.516,-3.43 -7.734,-5.61 -9.59,-16.1 -4.121,-23.44 l 92.031,-123.61 c 3.211,-4.3 8.231,-6.57 13.395,-6.57 3.633,0 7.336,1.12 10.531,3.44 7.734,5.6 9.57,16.1 4.121,23.43 l -92.051,123.61 c -3.211,4.31 -8.226,6.57 -13.39,6.57 m 48.078,34.8 c -3.633,0 -7.336,-1.12 -10.528,-3.43 -7.734,-5.61 -9.57,-16.09 -4.101,-23.43 l 92.051,-123.61 c 3.199,-4.31 8.215,-6.57 13.379,-6.57 3.625,0 7.328,1.12 10.527,3.43 7.715,5.59 9.57,16.09 4.101,23.43 l -92.05,123.6 c -3.2,4.32 -8.215,6.58 -13.379,6.58 m 48.07,34.8 c -3.625,0 -7.32,-1.11 -10.512,-3.43 -7.734,-5.6 -9.589,-16.09 -4.121,-23.43 l 92.051,-123.61 c 3.199,-4.31 8.219,-6.57 13.383,-6.57 3.629,0 7.332,1.12 10.523,3.43 7.754,5.6 9.571,16.09 4.102,23.43 l -92.031,123.6 c -3.211,4.32 -8.231,6.58 -13.395,6.58"
         style="fill:#0b0805;fill-opacity:1;fill-rule:nonzero;stroke:none"
         id="path46" /><path
         d="m 676.21494,3486.5786 c -2.42,0 -4.95,0.62 -7.32,1.94 l -44.98,24.91 c -6.4,3.55 -9.12,10.8 -6.03,16.18 l 141.48,248.17 c 1.94,3.4 5.73,5.24 9.87,5.24 2.41,0 4.94,-0.62 7.3,-1.93 l 8.3,-4.6 88.77,155.68 c -6.5,4.89 -12.4,10.65 -16.86,17.62 -48.14,58.13 48.13,196.7 48.13,196.7 8.87,9.98 17.91,19.89 27.15,29.66 9.24,9.8 18.61,19.52 28.44,28.97 -3.09,-13.2 -6.61,-26.15 -10.32,-39.01 -3.67,-12.86 -7.58,-25.61 -11.6,-38.29 0,0 -50.47,-88.5 -48.92,-120.13 1.4,-29.04 14.86,-37.74 22.28,-41.7 4.4,-2.37 12.2,-5.7 22.06,-5.7 6.72,0 14.4,1.55 22.63,6 30.02,16.25 81.10996,107.28 82.14996,108.56 8.82,10.04 17.85,19.92 27.11,29.7 9.27,9.77 18.67,19.46 28.67,28.83 -2.95,-13.28 -6.45,-26.25 -10.08,-39.13 -3.71,-12.86 -7.56,-25.63 -11.66,-38.26 -0.56,-1.52 -69.42,-144.77 -140.59996,-144.76 -1.2,0 -2.42,0.04 -3.62,0.13 -9.43,0.65 -18.14,2.42 -26.46,5.38 l -88.93,-155.96 8.3,-4.61 c 6.45,-3.55 9.16,-10.81 6.09,-16.19 l -141.5,-248.17 c -1.93,-3.4 -5.71,-5.23 -9.85,-5.23 m -15.88,48.24 c -3.35,0 -6.59,-1.73 -8.35,-4.81 -2.6,-4.55 -0.96,-10.3 3.65,-12.86 1.49,-0.82 3.1,-1.21 4.68,-1.21 3.35,0 6.6,1.73 8.35,4.82 2.6,4.54 0.98,10.29 -3.65,12.85 -1.49,0.82 -3.1,1.21 -4.68,1.21 m 122.24,217.81 c -3.35,0 -6.6,-1.73 -8.36,-4.82 -2.58,-4.54 -0.94,-10.3 3.65,-12.85 1.49,-0.82 3.1,-1.22 4.69,-1.22 3.35,0 6.59,1.74 8.35,4.82 2.6,4.55 0.96,10.3 -3.65,12.86 -1.48,0.82 -3.09,1.21 -4.68,1.21"
         style="fill:#0b0805;fill-opacity:1;fill-rule:nonzero;stroke:none"
         id="path48" /><path
         d="m 887.43494,3142.6086 c -81.84,0 -155.69,56.41 -164.75,130.06 -6.58,53.6 4.22,126.99 71.58,204.19 0,0 -7.57,-51.47 25.26,-74.71 0,0 -51.37,101.28 11.77,209.19 0,0 14.47,-61.13 29.07,-61.13 1.54,0 3.08,0.68 4.61,2.19 15.99,15.77 46.31,52.29 31.99,102.93 0,0 55.57,-43.99 33.69,-136.14 0,0 0.96,-0.15 2.64,-0.15 8.51,0 35.5,4.05 49.55,53.28 0,0 31.16996,-33.2 0.84,-118.71 0,0 3.56,-1.67 9.15,-1.67 12.02996,0 33.42996,7.74 48.94996,56.47 0,0 56.98,-77.96 29.48,-240.73 -13.48,-79.69 -101.99996,-125.07 -183.82996,-125.07 m -49.01,237.38 c -38.2,-40.58 -44.33,-79.16 -40.6,-107.36 5.13,-38.71 47.01,-68.37 93.44,-68.37 46.42,0 98.04,22.99 104.25,65.75 12.49996,86.01 -16.7,126.57 -16.7,126.57 -8.79,-25.62 -20.93,-29.68 -27.75,-29.68 -3.17,0 -5.2,0.88 -5.2,0.88 17.19,44.94 -0.48,62.4 -0.48,62.4 -7.98,-25.88 -23.28,-28.01 -28.11,-28.01 -0.96,0 -1.5,0.08 -1.5,0.08 12.42,48.43 -19.1,71.57 -19.1,71.57 8.12,-26.62 -9.07,-45.83 -18.15,-54.12 -0.87,-0.79 -1.74,-1.15 -2.62,-1.15 -8.28,0 -16.48,32.13 -16.48,32.13 -35.82,-56.72 -6.68,-109.97 -6.68,-109.97 -18.63,12.23 -14.32,39.28 -14.32,39.28"
         style="fill:#0b0805;fill-opacity:1;fill-rule:nonzero;stroke:none"
         id="path52" /><path
         d="m 711.11494,1723.6786 c -2.41,0 -4.95,0.62 -7.31,1.94 l -44.99,24.91 c -6.4,3.55 -9.12,10.8 -6.05,16.18 l 141.5,248.17 c 1.94,3.4 5.73,5.24 9.87,5.24 2.41,0 4.94,-0.62 7.3,-1.93 l 8.3,-4.61 88.77,155.69 c -6.5,4.89 -12.4,10.65 -16.85,17.62 -48.15,58.13 48.12,196.7 48.12,196.7 8.87,9.98 17.91,19.89 27.15,29.66 9.24,9.8 18.61,19.51 28.44,28.97 -3.09,-13.2 -6.6,-26.15 -10.31,-39.01 -3.68,-12.86 -7.58,-25.61 -11.61,-38.28 0,0 -50.47,-88.51 -48.92,-120.14 1.4,-29.04 14.86,-37.74 22.28,-41.7 4.41,-2.37 12.2,-5.69 22.06,-5.69 6.72,0 14.41,1.54 22.63,5.99 30.01996,16.25 81.10996,107.28 82.14996,108.56 8.81,10.04 17.85,19.92 27.09,29.7 9.3,9.78 18.69,19.46 28.69,28.83 -2.95,-13.28 -6.45,-26.25 -10.08,-39.13 -3.71,-12.86 -7.56,-25.63 -11.66,-38.26 -0.58,-1.52 -69.42,-144.76 -140.59996,-144.76 -1.2,0 -2.41,0.04 -3.62,0.13 -9.43,0.65 -18.14,2.42 -26.46,5.38 l -88.93,-155.96 8.3,-4.6 c 6.43,-3.56 9.16,-10.81 6.1,-16.2 l -141.51,-248.17 c -1.93,-3.4 -5.71,-5.24 -9.85,-5.23 m -15.88,48.24 c -3.34,0 -6.59,-1.73 -8.35,-4.81 -2.6,-4.54 -0.96,-10.3 3.65,-12.85 1.49,-0.83 3.1,-1.22 4.69,-1.22 3.35,0 6.59,1.74 8.34,4.82 2.6,4.55 0.98,10.29 -3.65,12.85 -1.49,0.82 -3.09,1.21 -4.68,1.21 m 122.24,217.81 c -3.35,0 -6.6,-1.73 -8.36,-4.82 -2.58,-4.54 -0.94,-10.3 3.65,-12.84 1.49,-0.83 3.11,-1.22 4.7,-1.22 3.35,0 6.59,1.73 8.35,4.81 2.59,4.55 0.95,10.3 -3.66,12.86 -1.48,0.82 -3.09,1.21 -4.68,1.21"
         style="fill:#0b0805;fill-opacity:1;fill-rule:nonzero;stroke:none"
         id="path54" /><path
         d="m 1169.4649,2374.0586 c -3.51,0 -6.77,1.4 -8.79,4.12 l -170.89996,229.48 c -3.73,4.98 -1.89,12.5 4.04,16.8 l 7.67996,5.57 -127.98996,171.88 -50.37,-36.47 c -3.87,-2.8 -12.53,-6.43 -22.14,-6.43 -9.05,0 -18.94,3.21 -26.49,13.35 l -122.09,145.62 c -17.05,22.88 -4.34,38.46 3.18,43.91 l 151.11,109.38 c 6.2,4.48 12.72,7.18 19.31,7.18 9.83,0 19.83,-6 29.17,-21.01 l 97.54,-150.35 c 19.24,-28.15 2.13,-46.31 -5.41,-51.75 l -47.62,-34.47 128.00996,-171.88 7.68,5.56 c 2.68,1.94 5.75,2.89 8.65,2.89 3.51,0 6.77,-1.39 8.81,-4.12 l 170.88,-229.49 c 3.71,-4.97 1.91,-12.49 -4.03,-16.78 l -41.56,-30.09 c -2.69,-1.95 -5.77,-2.9 -8.67,-2.9 m 12.62,49.96 c -1.96,0 -3.94,-0.6 -5.65,-1.83 -4.28,-3.09 -5.19,-9 -2.05,-13.2 1.88,-2.52 4.78,-3.85 7.72,-3.85 1.96,0 3.95,0.59 5.66,1.83 4.26,3.08 5.18,8.99 2.03,13.2 -1.87,2.52 -4.77,3.85 -7.71,3.85 m -150.8,199.65 c -1.96,0 -3.95,-0.59 -5.65,-1.82 -4.24,-3.09 -5.18,-9.01 -2.05,-13.21 1.87,-2.52 4.78,-3.85 7.72,-3.85 1.97,0 3.96,0.6 5.66,1.83 4.28,3.08 5.21,8.99 2.07,13.2 -1.89,2.52 -4.8,3.85 -7.75,3.85 m -318.58996,336.62 c -3.63,0 -7.32,-1.12 -10.52,-3.42 -7.73,-5.61 -9.59,-16.11 -4.14,-23.45 l 92.05,-123.61 c 3.22,-4.31 8.24,-6.57 13.4,-6.57 3.63,0 7.34,1.12 10.53,3.44 7.73,5.6 9.57,16.09 4.12,23.42 l -92.05,123.62 c -3.21,4.31 -8.23,6.57 -13.39,6.57 m 48.08,34.8 c -3.63,0 -7.34,-1.12 -10.53,-3.43 -7.73,-5.6 -9.57,-16.09 -4.1,-23.43 l 92.03,-123.61 c 3.21,-4.31 8.23,-6.57 13.39,-6.57 3.63,0 7.33,1.11 10.52,3.43 7.73,5.59 9.57,16.09 4.12,23.42 l -92.05,123.62 c -3.2,4.3 -8.22,6.57 -13.38,6.57 m 48.07,34.8 c -3.63,0 -7.33,-1.12 -10.53,-3.43 -7.72,-5.6 -9.57,-16.09 -4.1,-23.43 l 92.05,-123.61 c 3.2,-4.31 8.21,-6.57 13.38,-6.57 3.63,0 7.33,1.12 10.52,3.42 7.76,5.61 9.57,16.1 4.1,23.43 l -92.03,123.61 c -3.21,4.31 -8.23,6.58 -13.39,6.58"
         style="fill:#0b0805;fill-opacity:1;fill-rule:nonzero;stroke:none"
         id="path56" /><path
         d="m 922.33494,1379.7086 c -81.84,0 -155.68,56.41 -164.75,130.06 -6.58,53.61 4.22,126.99 71.59,204.19 0,0 -7.58,-51.47 25.25,-74.71 0,0 -51.37,101.28 11.78,209.19 0,0 14.46,-61.14 29.06,-61.13 1.54,0 3.08,0.68 4.61,2.19 16,15.77 46.31,52.3 31.99,102.93 0,0 55.57,-43.99 33.69,-136.14 0,0 0.96,-0.15 2.64,-0.15 8.51,0 35.49996,4.05 49.54996,53.28 0,0 31.17,-33.2 0.84,-118.7 0,0 3.56,-1.67 9.16,-1.67 12.02,0 33.43,7.73 48.95,56.46 0,0 56.97,-77.96 29.47,-240.73 -13.48,-79.69 -101.99,-125.07 -183.82996,-125.07 m -49,237.38 c -38.21,-40.58 -44.34,-79.16 -40.61,-107.36 5.14,-38.71 47.01,-68.37 93.44,-68.37 46.42,0 98.03996,22.99 104.25996,65.76 12.5,86 -16.7,126.56 -16.7,126.56 -8.8,-25.62 -20.93996,-29.68 -27.75996,-29.68 -3.17,0 -5.19,0.88 -5.19,0.88 17.19,44.94 -0.49,62.4 -0.49,62.4 -7.98,-25.88 -23.28,-28.01 -28.11,-28.01 -0.95,0 -1.5,0.08 -1.5,0.08 12.4,48.44 -19.1,71.57 -19.1,71.57 8.12,-26.62 -9.08,-45.83 -18.15,-54.12 -0.86,-0.79 -1.74,-1.15 -2.61,-1.15 -8.29,0 -16.49,32.14 -16.49,32.14 -35.82,-56.73 -6.68,-109.98 -6.68,-109.98 -18.63,12.23 -14.31,39.28 -14.31,39.28"
         style="fill:#0b0805;fill-opacity:1;fill-rule:nonzero;stroke:none"
         id="path58" /><path
         d="m 934.48494,325.30859 h -37.29 l 0.01,0.0117 h 37.29 l -0.01,-0.0117"
         style="fill:#4f4c4c;fill-opacity:1;fill-rule:nonzero;stroke:none"
         id="path60" /><path
         d="m 1204.3749,611.16059 c -3.52,0 -6.78,1.398 -8.8,4.117 l -170.9,229.48 c -3.73,4.981 -1.91,12.512 4.05,16.801 l 7.67,5.559 -127.98996,171.88201 -50.37,-36.461 c -3.87,-2.80001 -12.53,-6.42901 -22.14,-6.42901 -9.04,0 -18.94,3.211 -26.49,13.34701 l -122.09,145.622 c -17.05,22.878 -4.34,38.46 3.18,43.91 l 151.12,109.379 c 6.19,4.48 12.71,7.179 19.3,7.179 9.83,0 19.83,-6 29.17,-21.008 l 97.54,-150.351 c 19.21996,-28.149 2.13,-46.309 -5.41,-51.75 l -47.61,-34.469 127.97996,-171.87901 7.7,5.571 c 2.68,1.929 5.75,2.878 8.65,2.878 3.51,0 6.78,-1.39 8.81,-4.121 l 170.88,-229.488 c 3.71,-4.973 1.91,-12.492 -4.02,-16.781 l -41.57,-30.09 c -2.69,-1.949 -5.76,-2.898 -8.66,-2.898 m 12.62,49.957 c -1.97,0 -3.95,-0.598 -5.66,-1.829 -4.27,-3.089 -5.19,-9 -2.05,-13.199 1.88,-2.519 4.78,-3.851 7.72,-3.851 1.97,0 3.95,0.59 5.66,1.832 4.26,3.078 5.18,9 2.03,13.199 -1.87,2.519 -4.77,3.848 -7.7,3.848 m -150.8,199.652 c -1.97,0 -3.95,-0.59 -5.66,-1.82 -4.24,-3.09 -5.17,-9.012 -2.05,-13.211 1.87,-2.52 4.78,-3.848 7.72,-3.848 1.97,0 3.96,0.598 5.66,1.84 4.26,3.078 5.22,8.976 2.07,13.187 -1.88,2.52 -4.8,3.852 -7.74,3.852 M 747.59494,1197.3906 c -3.62,0 -7.32,-1.121 -10.51,-3.422 -7.74,-5.621 -9.59,-16.109 -4.14,-23.449 l 92.05,-123.609 c 3.21,-4.313 8.23,-6.571 13.39,-6.571 3.64,0 7.34,1.117 10.53,3.438 7.74,5.601 9.57,16.09 4.12,23.422 l -92.07,123.621 c -3.2,4.308 -8.21,6.57 -13.37,6.57 m 48.08,34.797 c -3.63,0 -7.34,-1.117 -10.53,-3.43 -7.73,-5.609 -9.57,-16.09 -4.1,-23.429 l 92.03,-123.61 c 3.22,-4.308 8.23,-6.582 13.4,-6.582 3.62,0 7.32,1.121 10.51,3.434 7.73,5.597 9.57,16.097 4.12,23.429 l -92.05,123.618 c -3.2,4.312 -8.22,6.57 -13.38,6.57 m 48.07,34.801 c -3.63,0 -7.33,-1.121 -10.53,-3.43 -7.74,-5.602 -9.57,-16.09 -4.1,-23.43 l 92.05,-123.609 c 3.2,-4.313 8.22,-6.57 13.38,-6.57 3.63,0 7.33,1.121 10.52,3.418 7.74,5.613 9.57,16.101 4.11,23.429 l -92.04,123.621 c -3.21,4.313 -8.22,6.571 -13.39,6.571"
         style="fill:#0b0805;fill-opacity:1;fill-rule:nonzero;stroke:none"
         id="path64" /><path
         d="m 1271.1649,853.64059 c -2.42,0 -4.96,0.629 -7.33,1.938 l -44.96,24.91 c -6.4,3.55 -9.12,10.808 -6.05,16.191 l 141.5,248.16001 c 1.94,3.41 5.73,5.25 9.87,5.25 2.41,0 4.94,-0.633 7.3,-1.929 l 8.3,-4.614 88.77,155.692 c -6.5,4.89 -12.4,10.652 -16.86,17.609 -48.14,58.131 48.13,196.701 48.13,196.701 8.87,9.98 17.91,19.89 27.15,29.67 9.24,9.79 18.59,19.51 28.44,28.97 -3.09,-13.2 -6.63,-26.15 -10.32,-39.01 -3.67,-12.87 -7.57,-25.62 -11.6,-38.29 0,0 -50.47,-88.51 -48.92,-120.14 1.4,-29.04 14.84,-37.73 22.28,-41.7 4.4,-2.36 12.2,-5.69 22.06,-5.69 6.72,0 14.41,1.55 22.63,6 30.02,16.25 81.11,107.28 82.15,108.55 8.81,10.04 17.85,19.92 27.09,29.71 9.29,9.77 18.69,19.46 28.69,28.83 -2.95,-13.28 -6.45,-26.25 -10.08,-39.13 -3.71,-12.87 -7.56,-25.63 -11.66,-38.27 -0.58,-1.51 -69.42,-144.752 -140.6,-144.752 -1.2,0 -2.41,0.043 -3.62,0.121 -9.43,0.661 -18.14,2.43 -26.46,5.391 l -88.93,-155.969 8.3,-4.601 c 6.43,-3.559 9.16,-10.809 6.1,-16.2 l -141.51,-248.17101 c -1.93,-3.387 -5.72,-5.227 -9.86,-5.227 m -15.88,48.25 c -3.34,0 -6.59,-1.73 -8.34,-4.812 -2.6,-4.551 -0.96,-10.309 3.65,-12.86 1.49,-0.828 3.1,-1.219 4.69,-1.219 3.34,0 6.59,1.739 8.34,4.821 2.6,4.547 0.98,10.297 -3.65,12.859 -1.49,0.82 -3.1,1.211 -4.69,1.211 m 122.25,217.80901 c -3.35,0 -6.6,-1.743 -8.36,-4.832 -2.6,-4.539 -0.94,-10.289 3.65,-12.84 1.49,-0.828 3.1,-1.219 4.69,-1.219 3.35,0 6.59,1.738 8.36,4.82 2.59,4.539 0.95,10.289 -3.66,12.86 -1.48,0.82 -3.09,1.211 -4.68,1.211"
         style="fill:#0b0805;fill-opacity:1;fill-rule:nonzero;stroke:none"
         id="path66" /><path
         d="m 1729.5249,1504.0186 c -3.51,0 -6.77,1.4 -8.79,4.12 l -170.9,229.49 c -3.73,4.97 -1.91,12.5 4.04,16.8 l 7.68,5.56 -127.99,171.88 -50.37,-36.46 c -3.88,-2.8 -12.53,-6.43 -22.14,-6.43 -9.05,0 -18.94,3.21 -26.49,13.34 l -122.09,145.62 c -17.05,22.89 -4.34,38.46 3.18,43.91 l 151.11,109.38 c 6.2,4.49 12.71,7.18 19.31,7.18 9.83,0 19.83,-6 29.17,-21.01 l 97.54,-150.34 c 19.22,-28.15 2.13,-46.32 -5.41,-51.76 l -47.62,-34.46 127.99,-171.88 7.7,5.56 c 2.68,1.94 5.75,2.89 8.65,2.89 3.51,0 6.77,-1.4 8.81,-4.13 l 170.88,-229.49 c 3.71,-4.96 1.91,-12.48 -4.03,-16.78 l -41.58,-30.09 c -2.69,-1.94 -5.76,-2.9 -8.65,-2.9 m 12.62,49.96 c -1.96,0 -3.94,-0.59 -5.65,-1.83 -4.28,-3.09 -5.2,-8.99 -2.05,-13.19 1.87,-2.52 4.77,-3.86 7.72,-3.86 1.96,0 3.95,0.6 5.66,1.83 4.26,3.08 5.17,9 2.03,13.2 -1.87,2.52 -4.77,3.85 -7.71,3.85 m -150.8,199.66 c -1.96,0 -3.95,-0.6 -5.65,-1.83 -4.24,-3.08 -5.18,-9 -2.05,-13.21 1.87,-2.52 4.78,-3.85 7.72,-3.85 1.97,0 3.96,0.6 5.66,1.84 4.26,3.08 5.21,8.99 2.07,13.19 -1.89,2.52 -4.8,3.86 -7.75,3.86 m -318.59,336.61 c -3.63,0 -7.33,-1.11 -10.52,-3.42 -7.73,-5.61 -9.59,-16.11 -4.14,-23.45 l 92.05,-123.6 c 3.21,-4.31 8.23,-6.57 13.4,-6.57 3.63,0 7.34,1.12 10.53,3.43 7.73,5.6 9.57,16.1 4.12,23.43 l -92.07,123.61 c -3.2,4.31 -8.21,6.57 -13.37,6.57 m 48.07,34.8 c -3.63,0 -7.33,-1.12 -10.52,-3.43 -7.74,-5.6 -9.57,-16.09 -4.1,-23.43 l 92.03,-123.6 c 3.21,-4.32 8.23,-6.58 13.39,-6.58 3.63,0 7.32,1.12 10.51,3.43 7.74,5.6 9.58,16.1 4.13,23.43 l -92.05,123.61 c -3.2,4.31 -8.22,6.57 -13.39,6.57 m 48.08,34.81 c -3.63,0 -7.33,-1.12 -10.54,-3.44 -7.73,-5.59 -9.56,-16.09 -4.1,-23.43 l 92.05,-123.6 c 3.2,-4.31 8.22,-6.58 13.39,-6.58 3.63,0 7.33,1.12 10.52,3.43 7.74,5.61 9.57,16.09 4.1,23.43 l -92.03,123.61 c -3.21,4.31 -8.23,6.58 -13.39,6.58"
         style="fill:#0b0805;fill-opacity:1;fill-rule:nonzero;stroke:none"
         id="path68" /><path
         d="m 1497.1549,3705.9486 c -81.83,0 -155.7,56.41 -164.74,130.05 -6.6,53.61 4.22,126.99 71.56,204.2 0,0 -7.58,-51.47 25.25,-74.71 0,0 -51.34,101.27 11.8,209.19 0,0 14.46,-61.14 29.06,-61.13 1.54,0 3.09,0.69 4.61,2.19 16,15.77 46.31,52.29 32,102.93 0,0 55.56,-43.99 33.69,-136.14 0,0 0.95,-0.16 2.63,-0.16 8.5,0 35.49,4.06 49.55,53.29 0,0 31.18,-33.21 0.84,-118.71 0,0 3.57,-1.67 9.16,-1.67 12.03,0 33.43,7.74 48.95,56.47 0,0 56.97,-77.96 29.47,-240.73 -13.47,-79.69 -102.01,-125.07 -183.83,-125.07 m -49.02,237.38 c -38.2,-40.58 -44.33,-79.16 -40.58,-107.36 5.13,-38.71 47.01,-68.37 93.41,-68.37 46.45,0 98.07,22.99 104.28,65.75 12.48,86.01 -16.72,126.57 -16.72,126.57 -8.8,-25.62 -20.94,-29.68 -27.76,-29.68 -3.17,0 -5.19,0.87 -5.19,0.87 17.21,44.95 -0.49,62.41 -0.49,62.41 -7.97,-25.88 -23.26,-28.01 -28.09,-28.01 -0.95,0 -1.5,0.08 -1.5,0.08 12.41,48.43 -19.1,71.57 -19.1,71.57 8.11,-26.62 -9.08,-45.83 -18.14,-54.12 -0.87,-0.79 -1.74,-1.15 -2.62,-1.15 -8.29,0 -16.5,32.13 -16.5,32.13 -35.8,-56.73 -6.66,-109.97 -6.66,-109.97 -18.64,12.22 -14.34,39.28 -14.34,39.28"
         style="fill:#0b0805;fill-opacity:1;fill-rule:nonzero;stroke:none"
         id="path74" /><path
         d="m 1320.8349,2287.0086 c -2.42,0 -4.97,0.63 -7.33,1.95 l -44.96,24.91 c -6.41,3.55 -9.12,10.8 -6.05,16.18 l 141.48,248.17 c 1.95,3.4 5.74,5.24 9.88,5.24 2.41,0 4.94,-0.62 7.29,-1.93 l 8.32,-4.61 88.77,155.69 c -6.51,4.89 -12.4,10.65 -16.86,17.62 -48.14,58.13 48.11,196.69 48.11,196.69 8.89,9.98 17.93,19.9 27.15,29.67 9.24,9.8 18.61,19.51 28.43,28.97 -3.08,-13.2 -6.6,-26.15 -10.29,-39.01 -3.67,-12.86 -7.58,-25.61 -11.6,-38.29 0,0 -50.47,-88.5 -48.93,-120.13 1.41,-29.04 14.85,-37.74 22.27,-41.7 4.4,-2.37 12.2,-5.7 22.07,-5.7 6.73,0 14.41,1.55 22.64,6 30.02,16.25 81.09,107.28 82.15,108.56 8.8,10.03 17.85,19.92 27.09,29.7 9.27,9.77 18.69,19.46 28.69,28.83 -2.95,-13.28 -6.45,-26.25 -10.1,-39.13 -3.69,-12.86 -7.54,-25.63 -11.66,-38.26 -0.56,-1.52 -69.4,-144.76 -140.58,-144.76 -1.2,0 -2.42,0.04 -3.62,0.13 -9.43,0.65 -18.14,2.42 -26.47,5.38 l -88.92,-155.96 8.3,-4.61 c 6.43,-3.55 9.16,-10.81 6.09,-16.19 l -141.5,-248.17 c -1.94,-3.4 -5.72,-5.24 -9.86,-5.24 m -15.88,48.25 c -3.35,0 -6.59,-1.73 -8.34,-4.81 -2.6,-4.55 -0.98,-10.31 3.63,-12.86 1.49,-0.82 3.11,-1.21 4.7,-1.21 3.35,0 6.6,1.73 8.35,4.82 2.59,4.54 0.97,10.29 -3.66,12.85 -1.48,0.82 -3.09,1.21 -4.68,1.21 m 122.24,217.81 c -3.35,0 -6.61,-1.73 -8.38,-4.82 -2.57,-4.54 -0.93,-10.3 3.68,-12.85 1.49,-0.82 3.1,-1.22 4.69,-1.22 3.35,0 6.59,1.74 8.35,4.82 2.58,4.55 0.94,10.3 -3.65,12.86 -1.48,0.82 -3.09,1.21 -4.69,1.21"
         style="fill:#0b0805;fill-opacity:1;fill-rule:nonzero;stroke:none"
         id="path76" /><path
         d="m 1779.1849,2937.3986 c -3.51,0 -6.77,1.39 -8.8,4.12 l -170.9,229.48 c -3.71,4.98 -1.9,12.5 4.06,16.8 l 7.68,5.56 -128.01,171.88 -50.35,-36.46 c -3.88,-2.8 -12.54,-6.43 -22.15,-6.43 -9.05,0 -18.94,3.21 -26.49,13.35 l -122.1,145.62 c -17.04,22.88 -4.32,38.46 3.2,43.9 l 151.09,109.39 c 6.2,4.48 12.73,7.18 19.32,7.18 9.83,0 19.83,-6 29.16,-21.02 l 97.56,-150.34 c 19.22,-28.15 2.11,-46.31 -5.41,-51.75 l -47.62,-34.47 127.99,-171.88 7.69,5.56 c 2.68,1.94 5.74,2.89 8.64,2.89 3.52,0 6.79,-1.4 8.82,-4.12 l 170.88,-229.49 c 3.71,-4.97 1.92,-12.49 -4.04,-16.78 l -41.56,-30.09 c -2.69,-1.95 -5.76,-2.9 -8.66,-2.9 m 12.62,49.96 c -1.96,0 -3.94,-0.6 -5.64,-1.83 -4.28,-3.09 -5.2,-9 -2.07,-13.2 1.87,-2.52 4.78,-3.86 7.73,-3.86 1.97,0 3.95,0.6 5.67,1.83 4.23,3.08 5.17,9 2.03,13.21 -1.88,2.52 -4.78,3.85 -7.72,3.85 m -150.79,199.65 c -1.97,0 -3.95,-0.59 -5.65,-1.82 -4.26,-3.09 -5.18,-9.01 -2.05,-13.22 1.87,-2.51 4.77,-3.84 7.71,-3.84 1.97,0 3.96,0.59 5.67,1.83 4.25,3.08 5.19,8.99 2.05,13.2 -1.88,2.52 -4.79,3.85 -7.73,3.85 m -318.61,336.62 c -3.62,0 -7.31,-1.12 -10.5,-3.43 -7.75,-5.61 -9.59,-16.1 -4.14,-23.44 l 92.05,-123.61 c 3.2,-4.31 8.22,-6.57 13.39,-6.57 3.63,0 7.34,1.12 10.54,3.44 7.73,5.6 9.57,16.09 4.1,23.42 l -92.05,123.62 c -3.21,4.31 -8.23,6.57 -13.39,6.57 m 48.09,34.8 c -3.63,0 -7.33,-1.12 -10.52,-3.43 -7.76,-5.61 -9.57,-16.09 -4.12,-23.43 l 92.05,-123.61 c 3.21,-4.31 8.23,-6.58 13.39,-6.58 3.62,0 7.32,1.12 10.51,3.44 7.74,5.59 9.57,16.09 4.12,23.42 l -92.05,123.61 c -3.21,4.31 -8.22,6.58 -13.38,6.58 m 48.08,34.8 c -3.63,0 -7.34,-1.12 -10.54,-3.44 -7.73,-5.59 -9.57,-16.08 -4.1,-23.42 l 92.03,-123.62 c 3.21,-4.3 8.23,-6.56 13.39,-6.56 3.63,0 7.33,1.11 10.52,3.42 7.75,5.61 9.57,16.1 4.12,23.43 l -92.03,123.61 c -3.21,4.31 -8.23,6.58 -13.39,6.58"
         style="fill:#0b0805;fill-opacity:1;fill-rule:nonzero;stroke:none"
         id="path78" /><path
         d="m 1883.3449,3488.9986 c -2.41,0 -4.96,0.63 -7.32,1.94 l -44.96,24.91 c -6.41,3.56 -9.12,10.81 -6.05,16.19 l 141.48,248.16 c 1.95,3.41 5.74,5.25 9.88,5.25 2.41,0 4.94,-0.62 7.29,-1.93 l 8.32,-4.61 88.77,155.69 c -6.51,4.89 -12.4,10.65 -16.86,17.62 -48.14,58.13 48.11,196.69 48.11,196.69 8.88,9.98 17.93,19.89 27.15,29.67 9.23,9.8 18.61,19.51 28.43,28.97 -3.08,-13.2 -6.6,-26.15 -10.29,-39.01 -3.67,-12.87 -7.58,-25.62 -11.6,-38.29 0,0 -50.47,-88.51 -48.93,-120.14 1.41,-29.03 14.85,-37.73 22.27,-41.69 4.4,-2.37 12.2,-5.7 22.07,-5.7 6.73,0 14.41,1.55 22.64,6 30.02,16.25 81.09,107.28 82.14,108.55 8.81,10.04 17.86,19.92 27.09,29.71 9.28,9.78 18.7,19.46 28.7,28.83 -2.95,-13.28 -6.45,-26.25 -10.1,-39.13 -3.69,-12.87 -7.54,-25.63 -11.66,-38.26 -0.56,-1.52 -69.4,-144.78 -140.58,-144.76 -1.2,0 -2.42,0.04 -3.62,0.12 -9.43,0.66 -18.15,2.43 -26.47,5.39 l -88.92,-155.97 8.3,-4.6 c 6.42,-3.56 9.16,-10.81 6.09,-16.19 l -141.5,-248.18 c -1.94,-3.39 -5.72,-5.23 -9.87,-5.23 m -15.87,48.25 c -3.35,0 -6.6,-1.73 -8.36,-4.81 -2.58,-4.55 -0.96,-10.31 3.65,-12.85 1.49,-0.83 3.11,-1.22 4.7,-1.22 3.35,0 6.6,1.73 8.35,4.81 2.59,4.55 0.97,10.3 -3.66,12.86 -1.48,0.82 -3.09,1.21 -4.68,1.21 m 122.24,217.81 c -3.35,0 -6.61,-1.73 -8.38,-4.82 -2.57,-4.55 -0.93,-10.3 3.68,-12.85 1.48,-0.83 3.09,-1.22 4.68,-1.22 3.35,0 6.6,1.74 8.36,4.82 2.58,4.54 0.94,10.29 -3.67,12.86 -1.48,0.82 -3.08,1.21 -4.67,1.21"
         style="fill:#0b0805;fill-opacity:1;fill-rule:nonzero;stroke:none"
         id="path80" /><path
         d="m 2094.5649,3145.0386 c -81.82,0 -155.69,56.41 -164.75,130.05 -6.58,53.61 4.24,127 71.58,204.2 0,0 -7.58,-51.47 25.26,-74.71 0,0 -51.35,101.28 11.79,209.19 0,0 14.47,-61.14 29.07,-61.13 1.54,0 3.08,0.68 4.61,2.19 15.99,15.77 46.3,52.29 31.99,102.93 0,0 55.56,-43.99 33.69,-136.14 0,0 0.96,-0.16 2.63,-0.16 8.51,0 35.49,4.06 49.56,53.29 0,0 31.15,-33.21 0.84,-118.71 0,0 3.56,-1.67 9.15,-1.67 12.03,0 33.43,7.73 48.95,56.47 0,0 56.97,-77.96 29.46,-240.73 -13.46,-79.69 -102,-125.07 -183.83,-125.07 m -49.01,237.38 c -38.2,-40.58 -44.33,-79.17 -40.58,-107.36 5.13,-38.72 47.01,-68.38 93.41,-68.38 46.45,0 98.07,23 104.28,65.76 12.48,86 -16.72,126.56 -16.72,126.56 -8.79,-25.61 -20.93,-29.67 -27.75,-29.67 -3.17,0 -5.2,0.88 -5.2,0.88 17.19,44.94 -0.48,62.39 -0.48,62.39 -7.98,-25.87 -23.27,-28.01 -28.09,-28.01 -0.96,0 -1.5,0.09 -1.5,0.09 12.4,48.44 -19.11,71.57 -19.11,71.57 8.11,-26.63 -9.08,-45.83 -18.14,-54.12 -0.87,-0.79 -1.74,-1.15 -2.62,-1.15 -8.29,0 -16.5,32.14 -16.5,32.14 -35.8,-56.74 -6.66,-109.98 -6.66,-109.98 -18.65,12.22 -14.34,39.28 -14.34,39.28"
         style="fill:#0b0805;fill-opacity:1;fill-rule:nonzero;stroke:none"
         id="path84" /><path
         d="m 1918.2549,1726.0986 c -2.42,0 -4.96,0.63 -7.33,1.95 l -44.96,24.91 c -6.4,3.55 -9.12,10.8 -6.05,16.18 l 141.48,248.17 c 1.95,3.4 5.74,5.24 9.88,5.24 2.41,0 4.94,-0.63 7.29,-1.93 l 8.32,-4.61 88.77,155.69 c -6.5,4.89 -12.4,10.65 -16.85,17.62 -48.15,58.13 48.1,196.7 48.1,196.7 8.89,9.97 17.93,19.88 27.15,29.66 9.24,9.8 18.61,19.51 28.44,28.97 -3.09,-13.19 -6.61,-26.15 -10.3,-39.01 -3.69,-12.87 -7.57,-25.62 -11.62,-38.29 0,0 -50.45,-88.51 -48.9,-120.14 1.4,-29.04 14.84,-37.73 22.26,-41.69 4.4,-2.37 12.2,-5.7 22.07,-5.7 6.73,0 14.41,1.55 22.64,6 30.02,16.25 81.09,107.28 82.13,108.56 8.83,10.03 17.87,19.91 27.11,29.7 9.27,9.77 18.69,19.46 28.67,28.84 -2.93,-13.29 -6.45,-26.26 -10.08,-39.14 -3.69,-12.87 -7.54,-25.63 -11.66,-38.26 -0.56,-1.52 -69.4,-144.76 -140.58,-144.76 -1.2,0 -2.41,0.04 -3.62,0.12 -9.43,0.66 -18.14,2.43 -26.46,5.39 l -88.93,-155.97 8.3,-4.6 c 6.43,-3.56 9.16,-10.81 6.1,-16.19 l -141.51,-248.18 c -1.93,-3.39 -5.72,-5.23 -9.86,-5.23 m -15.87,48.25 c -3.35,0 -6.61,-1.73 -8.37,-4.81 -2.58,-4.54 -0.96,-10.31 3.65,-12.86 1.49,-0.82 3.11,-1.21 4.7,-1.21 3.36,0 6.6,1.73 8.35,4.81 2.6,4.55 0.98,10.3 -3.65,12.87 -1.49,0.81 -3.09,1.2 -4.68,1.2 m 122.23,217.81 c -3.35,0 -6.61,-1.73 -8.37,-4.82 -2.58,-4.55 -0.94,-10.3 3.67,-12.85 1.48,-0.82 3.1,-1.22 4.69,-1.22 3.34,0 6.59,1.74 8.36,4.82 2.57,4.55 0.93,10.29 -3.68,12.86 -1.47,0.82 -3.08,1.21 -4.67,1.21"
         style="fill:#0b0805;fill-opacity:1;fill-rule:nonzero;stroke:none"
         id="path86" /><path
         d="m 2376.6049,2376.4886 c -3.51,0 -6.78,1.4 -8.8,4.12 l -170.9,229.48 c -3.71,4.97 -1.89,12.5 4.06,16.8 l 7.68,5.56 -128.01,171.88 -50.35,-36.46 c -3.88,-2.8 -12.54,-6.43 -22.15,-6.43 -9.05,0 -18.94,3.21 -26.48,13.35 l -122.11,145.62 c -17.03,22.88 -4.32,38.46 3.2,43.91 l 151.09,109.38 c 6.21,4.48 12.73,7.18 19.32,7.18 9.84,0 19.83,-6 29.16,-21.02 l 97.56,-150.34 c 19.22,-28.15 2.11,-46.31 -5.41,-51.76 l -47.62,-34.46 127.99,-171.88 7.7,5.56 c 2.67,1.94 5.73,2.89 8.63,2.89 3.52,0 6.79,-1.4 8.83,-4.13 l 170.87,-229.48 c 3.72,-4.97 1.9,-12.49 -4.04,-16.78 l -41.56,-30.1 c -2.69,-1.94 -5.76,-2.89 -8.66,-2.89 m 12.62,49.95 c -1.96,0 -3.94,-0.59 -5.64,-1.82 -4.28,-3.1 -5.2,-9 -2.07,-13.2 1.87,-2.52 4.78,-3.86 7.73,-3.86 1.97,0 3.96,0.6 5.67,1.83 4.24,3.09 5.17,9 2.03,13.2 -1.87,2.52 -4.78,3.85 -7.72,3.85 m -150.79,199.66 c -1.97,0 -3.95,-0.59 -5.65,-1.83 -4.26,-3.08 -5.18,-9 -2.07,-13.2 1.88,-2.52 4.78,-3.85 7.72,-3.85 1.98,0 3.97,0.59 5.68,1.83 4.26,3.08 5.19,8.99 2.05,13.2 -1.88,2.52 -4.78,3.85 -7.73,3.85 m -318.61,336.62 c -3.62,0 -7.31,-1.12 -10.5,-3.43 -7.75,-5.61 -9.61,-16.1 -4.14,-23.44 l 92.05,-123.61 c 3.2,-4.31 8.22,-6.57 13.39,-6.57 3.63,0 7.34,1.12 10.54,3.43 7.73,5.6 9.57,16.1 4.1,23.43 l -92.05,123.62 c -3.21,4.31 -8.23,6.57 -13.39,6.57 m 48.09,34.79 c -3.63,0 -7.33,-1.11 -10.52,-3.42 -7.76,-5.61 -9.57,-16.09 -4.12,-23.44 l 92.05,-123.6 c 3.2,-4.31 8.22,-6.58 13.39,-6.58 3.62,0 7.32,1.12 10.52,3.43 7.73,5.6 9.56,16.1 4.12,23.43 l -92.06,123.61 c -3.21,4.31 -8.22,6.57 -13.38,6.57 m 48.08,34.81 c -3.63,0 -7.33,-1.12 -10.53,-3.44 -7.74,-5.59 -9.59,-16.09 -4.11,-23.43 l 92.03,-123.6 c 3.22,-4.31 8.23,-6.57 13.4,-6.57 3.62,0 7.32,1.11 10.51,3.42 7.75,5.61 9.57,16.1 4.12,23.43 l -92.05,123.61 c -3.2,4.31 -8.21,6.58 -13.37,6.58"
         style="fill:#0b0805;fill-opacity:1;fill-rule:nonzero;stroke:none"
         id="path88" /><path
         d="m 2129.4649,1382.1386 c -81.84,0 -155.68,56.42 -164.75,130.05 -6.58,53.62 4.22,127 71.58,204.2 0,0 -7.57,-51.47 25.26,-74.71 0,0 -51.35,101.27 11.8,209.18 0,0 14.46,-61.13 29.06,-61.12 1.54,0 3.08,0.68 4.61,2.18 15.99,15.78 46.31,52.3 31.99,102.94 0,0 55.57,-44 33.69,-136.14 0,0 0.96,-0.16 2.64,-0.16 8.5,0 35.49,4.06 49.55,53.29 0,0 31.15,-33.21 0.84,-118.71 0,0 3.56,-1.67 9.16,-1.67 12.02,0 33.43,7.74 48.94,56.47 0,0 56.98,-77.96 29.46,-240.73 -13.46,-79.69 -101.99,-125.07 -183.83,-125.07 m -49,237.38 c -38.21,-40.58 -44.34,-79.17 -40.59,-107.36 5.14,-38.72 47.01,-68.37 93.42,-68.37 46.42,0 98.06,22.99 104.27,65.75 12.48,86 -16.71,126.56 -16.71,126.56 -8.8,-25.61 -20.94,-29.68 -27.76,-29.68 -3.17,0 -5.19,0.89 -5.19,0.89 17.18,44.94 -0.49,62.4 -0.49,62.4 -7.98,-25.88 -23.27,-28.02 -28.09,-28.02 -0.96,0 -1.5,0.09 -1.5,0.09 12.4,48.44 -19.1,71.57 -19.1,71.57 8.1,-26.63 -9.09,-45.83 -18.15,-54.12 -0.87,-0.79 -1.74,-1.15 -2.61,-1.15 -8.29,0 -16.51,32.14 -16.51,32.14 -35.8,-56.74 -6.66,-109.98 -6.66,-109.98 -18.65,12.23 -14.33,39.28 -14.33,39.28"
         style="fill:#0b0805;fill-opacity:1;fill-rule:nonzero;stroke:none"
         id="path90" /><path
         d="m 2140.2449,325.30859 h -37.3 v 0.0117 h 37.31 l -0.01,-0.0117"
         style="fill:#4f4c4c;fill-opacity:1;fill-rule:nonzero;stroke:none"
         id="path92" /><path
         d="m 2411.5049,613.58959 c -3.51,0 -6.78,1.391 -8.8,4.117 l -170.9,229.481 c -3.71,4.98 -1.89,12.5 4.07,16.801 l 7.67,5.558 -128.01,171.88301 -50.37,-36.461 c -3.86,-2.801 -12.52,-6.43001 -22.13,-6.43001 -9.04,0 -18.94,3.21101 -26.48,13.35201 l -122.11,145.617 c -17.05,22.883 -4.34,38.461 3.2,43.91 l 151.1,109.379 c 6.2,4.481 12.72,7.184 19.31,7.184 9.84,0 19.83,-6 29.16,-21.024 l 97.56,-150.339 c 19.22,-28.149 2.11,-46.309 -5.43,-51.758 l -47.6,-34.461 127.99,-171.87901 7.7,5.559 c 2.67,1.941 5.73,2.89 8.63,2.89 3.51,0 6.78,-1.398 8.83,-4.129 l 170.88,-229.48 c 3.71,-4.969 1.89,-12.492 -4.05,-16.781 l -41.56,-30.09 c -2.68,-1.95 -5.76,-2.899 -8.66,-2.899 m 12.62,49.949 c -1.97,0 -3.95,-0.589 -5.66,-1.832 -4.25,-3.089 -5.17,-8.988 -2.05,-13.187 1.88,-2.52 4.78,-3.859 7.73,-3.859 1.97,0 3.96,0.597 5.67,1.839 4.24,3.079 5.18,8.989 2.03,13.188 -1.87,2.519 -4.78,3.851 -7.72,3.851 m -150.79,199.661 c -1.96,0 -3.94,-0.59 -5.65,-1.832 -4.26,-3.079 -5.19,-9 -2.07,-13.207 1.88,-2.512 4.79,-3.84 7.73,-3.84 1.97,0 3.96,0.59 5.67,1.828 4.26,3.082 5.2,8.988 2.05,13.199 -1.87,2.52 -4.78,3.852 -7.73,3.852 m -318.61,336.62101 c -3.63,0 -7.32,-1.121 -10.51,-3.434 -7.74,-5.609 -9.59,-16.098 -4.13,-23.437 l 92.05,-123.61 c 3.2,-4.312 8.22,-6.57 13.39,-6.57 3.63,0 7.34,1.117 10.54,3.43 7.74,5.597 9.57,16.097 4.1,23.429 l -92.05,123.621 c -3.21,4.309 -8.23,6.571 -13.39,6.571 m 48.09,34.797 c -3.63,0 -7.33,-1.118 -10.52,-3.43 -7.75,-5.609 -9.57,-16.09 -4.12,-23.438 l 92.05,-123.601 c 3.2,-4.309 8.22,-6.578 13.39,-6.578 3.63,0 7.33,1.117 10.52,3.429 7.73,5.598 9.57,16.098 4.12,23.43 l -92.05,123.609 c -3.21,4.309 -8.23,6.579 -13.39,6.579 m 48.07,34.8 c -3.62,0 -7.32,-1.121 -10.52,-3.429 -7.74,-5.598 -9.59,-16.09 -4.1,-23.442 l 92.03,-123.597 c 3.21,-4.309 8.23,-6.571 13.39,-6.571 3.62,0 7.32,1.11 10.51,3.418 7.76,5.614 9.57,16.102 4.12,23.434 l -92.05,123.609 c -3.21,4.309 -8.22,6.578 -13.38,6.578"
         style="fill:#0b0805;fill-opacity:1;fill-rule:nonzero;stroke:none"
         id="path96" /><path
         d="m 2478.3149,856.07059 c -2.42,0 -4.96,0.629 -7.33,1.937 l -44.96,24.91 c -6.4,3.563 -9.14,10.813 -6.05,16.18 l 141.48,248.17201 c 1.95,3.398 5.74,5.25 9.88,5.25 2.41,0 4.94,-0.629 7.29,-1.941 l 8.32,-4.598 88.77,155.687 c -6.5,4.883 -12.4,10.641 -16.86,17.61 -48.14,58.131 48.11,196.701 48.11,196.701 8.89,9.98 17.91,19.89 27.15,29.66 9.24,9.8 18.61,19.52 28.43,28.97 -3.08,-13.19 -6.6,-26.15 -10.29,-39 -3.69,-12.87 -7.6,-25.62 -11.62,-38.3 0,0 -50.45,-88.5 -48.91,-120.13 1.41,-29.04 14.85,-37.74 22.27,-41.7 4.4,-2.36 12.2,-5.69 22.07,-5.69 6.72,0 14.41,1.54 22.64,5.99 30.02,16.25 81.09,107.28 82.13,108.56 8.82,10.04 17.87,19.92 27.11,29.7 9.27,9.78 18.69,19.46 28.67,28.84 -2.93,-13.28 -6.45,-26.25 -10.08,-39.13 -3.69,-12.87 -7.54,-25.63 -11.66,-38.27 -0.56,-1.52 -69.41,-144.748 -140.58,-144.748 -1.21,0 -2.41,0.039 -3.62,0.117 -9.43,0.652 -18.14,2.43 -26.46,5.391 l -88.93,-155.969 8.3,-4.609 c 6.43,-3.551 9.16,-10.813 6.09,-16.192 l -141.5,-248.17201 c -1.94,-3.386 -5.72,-5.226 -9.86,-5.226 m -15.88,48.25 c -3.35,0 -6.6,-1.742 -8.36,-4.821 -2.58,-4.543 -0.96,-10.3 3.65,-12.851 1.49,-0.828 3.11,-1.219 4.7,-1.219 3.35,0 6.6,1.738 8.35,4.82 2.58,4.547 0.95,10.289 -3.65,12.86 -1.49,0.82 -3.1,1.211 -4.69,1.211 m 122.23,217.79701 c -3.35,0 -6.6,-1.727 -8.37,-4.809 -2.57,-4.551 -0.93,-10.309 3.66,-12.859 1.49,-0.821 3.1,-1.211 4.7,-1.211 3.35,0 6.6,1.73 8.36,4.808 2.58,4.551 0.94,10.301 -3.67,12.864 -1.48,0.82 -3.09,1.207 -4.68,1.207"
         style="fill:#0b0805;fill-opacity:1;fill-rule:nonzero;stroke:none"
         id="path98" /><path
         d="m 2936.6549,1506.4486 c -3.51,0 -6.77,1.4 -8.79,4.12 l -170.9,229.48 c -3.71,4.98 -1.9,12.5 4.06,16.81 l 7.68,5.56 -128.01,171.88 -50.37,-36.47 c -3.87,-2.8 -12.52,-6.43 -22.13,-6.43 -9.05,0 -18.94,3.22 -26.48,13.35 l -122.11,145.62 c -17.05,22.88 -4.34,38.46 3.2,43.91 l 151.09,109.38 c 6.21,4.48 12.73,7.18 19.32,7.18 9.84,0 19.83,-6 29.16,-21.01 l 97.56,-150.35 c 19.22,-28.15 2.11,-46.31 -5.43,-51.75 l -47.6,-34.46 127.99,-171.89 7.69,5.56 c 2.68,1.94 5.74,2.9 8.64,2.9 3.51,0 6.78,-1.4 8.82,-4.13 l 170.88,-229.49 c 3.7,-4.96 1.9,-12.48 -4.04,-16.78 l -41.56,-30.09 c -2.69,-1.95 -5.76,-2.9 -8.67,-2.9 m 12.63,49.96 c -1.97,0 -3.95,-0.59 -5.66,-1.83 -4.26,-3.09 -5.18,-9 -2.05,-13.2 1.87,-2.52 4.78,-3.85 7.73,-3.85 1.97,0 3.95,0.59 5.67,1.83 4.23,3.08 5.17,9 2.03,13.2 -1.87,2.52 -4.78,3.85 -7.72,3.85 m -150.79,199.65 c -1.97,0 -3.95,-0.59 -5.65,-1.82 -4.26,-3.09 -5.2,-9.01 -2.07,-13.21 1.88,-2.52 4.79,-3.85 7.73,-3.85 1.97,0 3.96,0.6 5.67,1.83 4.25,3.09 5.19,8.99 2.05,13.2 -1.88,2.52 -4.79,3.85 -7.73,3.85 m -318.61,336.62 c -3.63,0 -7.33,-1.12 -10.52,-3.43 -7.73,-5.6 -9.59,-16.1 -4.12,-23.44 l 92.05,-123.61 c 3.2,-4.3 8.22,-6.57 13.38,-6.57 3.64,0 7.35,1.12 10.55,3.44 7.73,5.6 9.57,16.1 4.1,23.43 l -92.05,123.61 c -3.21,4.31 -8.23,6.57 -13.39,6.57 m 48.09,34.8 c -3.63,0 -7.33,-1.12 -10.52,-3.43 -7.76,-5.61 -9.57,-16.09 -4.12,-23.43 l 92.05,-123.61 c 3.2,-4.31 8.22,-6.57 13.38,-6.57 3.63,0 7.33,1.11 10.52,3.43 7.74,5.59 9.57,16.09 4.12,23.43 l -92.05,123.6 c -3.21,4.32 -8.22,6.58 -13.38,6.58 m 48.07,34.8 c -3.63,0 -7.33,-1.12 -10.53,-3.43 -7.73,-5.6 -9.59,-16.09 -4.1,-23.43 l 92.03,-123.61 c 3.22,-4.31 8.23,-6.57 13.39,-6.57 3.63,0 7.33,1.12 10.52,3.43 7.75,5.6 9.57,16.09 4.12,23.43 l -92.05,123.6 c -3.21,4.32 -8.22,6.58 -13.38,6.58"
         style="fill:#0b0805;fill-opacity:1;fill-rule:nonzero;stroke:none"
         id="path100" /><path
         d="m 2704.2849,3708.3686 c -81.83,0 -155.68,56.42 -164.74,130.06 -6.58,53.61 4.22,126.99 71.58,204.19 0,0 -7.58,-51.46 25.25,-74.7 0,0 -51.35,101.27 11.78,209.19 0,0 14.46,-61.14 29.06,-61.13 1.54,0 3.09,0.68 4.61,2.19 16.02,15.77 46.33,52.29 32.01,102.93 0,0 55.55,-43.99 33.68,-136.14 0,0 0.95,-0.16 2.63,-0.16 8.51,0.01 35.51,4.06 49.57,53.29 0,0 31.15,-33.21 0.84,-118.71 0,0 3.56,-1.67 9.15,-1.67 12.02,0 33.43,7.74 48.96,56.46 0,0 56.95,-77.95 29.45,-240.73 -13.46,-79.68 -101.99,-125.07 -183.83,-125.07 m -49,237.39 c -38.2,-40.58 -44.34,-79.17 -40.61,-107.36 5.14,-38.71 47.02,-68.38 93.44,-68.38 46.43,0 98.07,23 104.26,65.76 12.5,86 -16.7,126.57 -16.7,126.57 -8.8,-25.62 -20.93,-29.68 -27.75,-29.68 -3.18,0 -5.2,0.87 -5.2,0.87 17.19,44.95 -0.49,62.4 -0.49,62.4 -7.97,-25.87 -23.27,-28 -28.11,-28 -0.95,0 -1.5,0.08 -1.5,0.08 12.43,48.43 -19.1,71.57 -19.1,71.57 8.13,-26.63 -9.06,-45.83 -18.14,-54.12 -0.87,-0.79 -1.75,-1.15 -2.62,-1.15 -8.29,0 -16.48,32.13 -16.48,32.13 -35.83,-56.73 -6.68,-109.97 -6.68,-109.97 -18.64,12.22 -14.32,39.28 -14.32,39.28"
         style="fill:#0b0805;fill-opacity:1;fill-rule:nonzero;stroke:none"
         id="path106" /><path
         d="m 2527.9749,2289.4386 c -2.42,0 -4.96,0.63 -7.32,1.94 l -44.98,24.91 c -6.41,3.56 -9.12,10.81 -6.04,16.19 l 141.49,248.16 c 1.94,3.41 5.72,5.25 9.86,5.25 2.42,0 4.95,-0.63 7.31,-1.93 l 8.32,-4.61 88.75,155.69 c -6.51,4.89 -12.39,10.65 -16.86,17.61 -48.14,58.14 48.13,196.7 48.13,196.7 8.88,9.98 17.91,19.89 27.14,29.67 9.24,9.8 18.62,19.51 28.44,28.97 -3.08,-13.2 -6.6,-26.15 -10.31,-39.01 -3.67,-12.87 -7.58,-25.62 -11.6,-38.29 0,0 -50.47,-88.51 -48.93,-120.14 1.41,-29.04 14.87,-37.73 22.29,-41.7 4.4,-2.36 12.19,-5.69 22.06,-5.69 6.72,0 14.4,1.55 22.63,6 30.01,16.25 81.11,107.28 82.14,108.56 8.83,10.03 17.86,19.91 27.11,29.7 9.28,9.77 18.68,19.46 28.67,28.83 -2.94,-13.28 -6.44,-26.25 -10.07,-39.13 -3.71,-12.87 -7.54,-25.63 -11.66,-38.27 -0.56,-1.51 -69.42,-144.75 -140.6,-144.75 -1.2,0 -2.42,0.04 -3.62,0.12 -9.44,0.66 -18.15,2.43 -26.47,5.39 l -88.92,-155.97 8.32,-4.6 c 6.42,-3.56 9.14,-10.81 6.07,-16.19 l -141.5,-248.18 c -1.93,-3.39 -5.71,-5.23 -9.85,-5.23 m -15.89,48.25 c -3.34,0 -6.58,-1.73 -8.34,-4.81 -2.6,-4.55 -0.96,-10.31 3.65,-12.86 1.48,-0.83 3.09,-1.22 4.68,-1.22 3.35,0 6.6,1.74 8.37,4.82 2.57,4.55 0.95,10.3 -3.68,12.86 -1.48,0.82 -3.09,1.21 -4.68,1.21 m 122.25,217.81 c -3.35,0 -6.61,-1.73 -8.37,-4.82 -2.58,-4.55 -0.93,-10.3 3.66,-12.85 1.49,-0.83 3.1,-1.22 4.69,-1.22 3.35,0 6.59,1.74 8.35,4.82 2.6,4.54 0.96,10.29 -3.65,12.86 -1.48,0.82 -3.09,1.21 -4.68,1.21"
         style="fill:#0b0805;fill-opacity:1;fill-rule:nonzero;stroke:none"
         id="path108" /><path
         d="m 2986.3249,2939.8186 c -3.52,0 -6.77,1.4 -8.8,4.13 l -170.89,229.48 c -3.71,4.97 -1.9,12.5 4.04,16.8 l 7.68,5.56 -127.99,171.88 -50.37,-36.46 c -3.88,-2.8 -12.53,-6.43 -22.14,-6.43 -9.04,0 -18.93,3.21 -26.48,13.35 l -122.11,145.62 c -17.05,22.88 -4.33,38.46 3.19,43.91 l 151.11,109.37 c 6.2,4.49 12.72,7.18 19.31,7.18 9.83,0 19.83,-5.99 29.17,-21.01 l 97.56,-150.34 c 19.21,-28.15 2.11,-46.31 -5.43,-51.76 l -47.62,-34.46 128.01,-171.88 7.69,5.56 c 2.68,1.94 5.74,2.89 8.64,2.89 3.51,0 6.78,-1.4 8.82,-4.13 l 170.86,-229.48 c 3.71,-4.97 1.92,-12.49 -4.02,-16.78 l -41.56,-30.1 c -2.7,-1.94 -5.77,-2.9 -8.67,-2.9 m 12.63,49.96 c -1.97,0 -3.96,-0.59 -5.66,-1.83 -4.28,-3.09 -5.2,-8.99 -2.05,-13.19 1.87,-2.52 4.78,-3.86 7.72,-3.86 1.97,0 3.95,0.6 5.66,1.83 4.25,3.08 5.19,9 2.05,13.2 -1.88,2.52 -4.78,3.85 -7.72,3.85 m -150.8,199.66 c -1.97,0 -3.95,-0.6 -5.66,-1.83 -4.24,-3.08 -5.18,-9 -2.05,-13.21 1.88,-2.52 4.78,-3.85 7.73,-3.85 1.97,0 3.96,0.6 5.66,1.84 4.26,3.08 5.2,8.99 2.05,13.19 -1.88,2.52 -4.79,3.86 -7.73,3.86 m -318.6,336.62 c -3.63,0 -7.33,-1.12 -10.52,-3.43 -7.73,-5.61 -9.59,-16.11 -4.12,-23.44 l 92.03,-123.61 c 3.21,-4.31 8.23,-6.57 13.4,-6.57 3.63,0 7.33,1.12 10.53,3.43 7.73,5.6 9.57,16.1 4.12,23.43 l -92.05,123.62 c -3.22,4.3 -8.23,6.57 -13.39,6.57 m 48.07,34.79 c -3.63,0 -7.33,-1.12 -10.52,-3.43 -7.74,-5.6 -9.57,-16.09 -4.11,-23.43 l 92.06,-123.6 c 3.2,-4.31 8.21,-6.58 13.37,-6.58 3.63,0 7.33,1.12 10.53,3.43 7.72,5.6 9.57,16.1 4.1,23.43 l -92.05,123.61 c -3.2,4.31 -8.22,6.57 -13.38,6.57 m 48.08,34.81 c -3.63,0 -7.33,-1.12 -10.52,-3.44 -7.73,-5.59 -9.59,-16.09 -4.12,-23.43 l 92.05,-123.6 c 3.2,-4.31 8.22,-6.58 13.38,-6.58 3.63,0 7.34,1.12 10.53,3.43 7.75,5.61 9.57,16.1 4.1,23.43 l -92.03,123.61 c -3.21,4.31 -8.23,6.58 -13.39,6.58"
         style="fill:#0b0805;fill-opacity:1;fill-rule:nonzero;stroke:none"
         id="path110" /><path
         d="m 3090.4949,3491.4286 c -2.42,0 -4.96,0.63 -7.32,1.94 l -44.98,24.91 c -6.41,3.56 -9.12,10.81 -6.04,16.18 l 141.49,248.17 c 1.94,3.4 5.72,5.25 9.86,5.25 2.42,0 4.95,-0.63 7.31,-1.94 l 8.3,-4.6 88.77,155.69 c -6.51,4.89 -12.41,10.65 -16.86,17.62 -48.14,58.12 48.13,196.69 48.13,196.69 8.86,9.98 17.91,19.89 27.15,29.67 9.23,9.8 18.61,19.51 28.43,28.97 -3.08,-13.2 -6.6,-26.16 -10.31,-39.01 -3.67,-12.87 -7.58,-25.62 -11.6,-38.29 0,0 -50.47,-88.51 -48.93,-120.14 1.41,-29.04 14.87,-37.73 22.29,-41.69 4.4,-2.37 12.19,-5.7 22.06,-5.7 6.72,0 14.4,1.55 22.62,5.99 30.02,16.25 81.12,107.28 82.15,108.57 8.83,10.03 17.86,19.91 27.11,29.69 9.28,9.78 18.68,19.46 28.67,28.84 -2.94,-13.29 -6.44,-26.25 -10.07,-39.13 -3.71,-12.87 -7.54,-25.63 -11.66,-38.26 -0.56,-1.53 -69.43,-144.76 -140.6,-144.76 -1.21,0 -2.42,0.04 -3.62,0.12 -9.44,0.65 -18.15,2.43 -26.47,5.39 l -88.92,-155.97 8.32,-4.6 c 6.42,-3.56 9.14,-10.81 6.07,-16.2 l -141.5,-248.17 c -1.93,-3.39 -5.71,-5.23 -9.85,-5.23 m -15.89,48.25 c -3.34,0 -6.58,-1.73 -8.34,-4.82 -2.6,-4.54 -0.96,-10.3 3.65,-12.85 1.48,-0.82 3.1,-1.22 4.69,-1.22 3.34,0 6.59,1.74 8.34,4.82 2.59,4.55 0.97,10.29 -3.66,12.86 -1.48,0.82 -3.09,1.21 -4.68,1.21 m 122.25,217.81 c -3.35,0 -6.61,-1.74 -8.37,-4.82 -2.58,-4.55 -0.93,-10.3 3.66,-12.85 1.49,-0.83 3.1,-1.22 4.69,-1.22 3.35,0 6.59,1.74 8.35,4.82 2.6,4.54 0.96,10.29 -3.65,12.85 -1.48,0.83 -3.09,1.22 -4.68,1.22"
         style="fill:#0b0805;fill-opacity:1;fill-rule:nonzero;stroke:none"
         id="path112" /><path
         d="m 3301.7049,3147.4686 c -81.83,0 -155.68,56.41 -164.74,130.05 -6.58,53.61 4.22,126.99 71.58,204.19 0,0 -7.58,-51.47 25.26,-74.7 0,0 -51.35,101.27 11.77,209.18 0,0 14.46,-61.13 29.06,-61.12 1.54,0 3.09,0.68 4.61,2.18 16,15.77 46.31,52.3 32,102.94 0,0 55.56,-44 33.69,-136.14 0,0 0.96,-0.16 2.64,-0.16 8.51,0 35.5,4.06 49.55,53.29 0,0 31.17,-33.21 0.83,-118.71 0,0 3.57,-1.67 9.16,-1.67 12.03,0 33.43,7.74 48.95,56.46 0,0 56.97,-77.95 29.47,-240.73 -13.45,-79.68 -101.99,-125.06 -183.83,-125.06 m -49,237.37 c -38.2,-40.57 -44.33,-79.16 -40.6,-107.35 5.13,-38.72 47.01,-68.38 93.43,-68.38 46.43,0 98.05,22.99 104.26,65.76 12.5,86 -16.7,126.56 -16.7,126.56 -8.8,-25.61 -20.93,-29.68 -27.75,-29.68 -3.17,0 -5.2,0.88 -5.2,0.88 17.19,44.94 -0.49,62.4 -0.49,62.4 -7.97,-25.87 -23.27,-28.01 -28.1,-28.01 -0.96,0 -1.51,0.08 -1.51,0.08 12.43,48.44 -19.1,71.57 -19.1,71.57 8.13,-26.62 -9.06,-45.82 -18.14,-54.11 -0.87,-0.8 -1.74,-1.15 -2.62,-1.15 -8.28,0 -16.48,32.13 -16.48,32.13 -35.82,-56.73 -6.68,-109.97 -6.68,-109.97 -18.64,12.22 -14.32,39.27 -14.32,39.27"
         style="fill:#0b0805;fill-opacity:1;fill-rule:nonzero;stroke:none"
         id="path116" /><path
         d="m 3125.3949,1728.5286 c -2.41,0 -4.95,0.63 -7.32,1.94 l -44.98,24.91 c -6.4,3.56 -9.12,10.81 -6.03,16.18 l 141.48,248.18 c 1.94,3.4 5.72,5.24 9.86,5.24 2.42,0 4.95,-0.63 7.31,-1.94 l 8.3,-4.6 88.77,155.69 c -6.5,4.89 -12.4,10.65 -16.86,17.61 -48.14,58.13 48.13,196.7 48.13,196.7 8.87,9.98 17.91,19.89 27.15,29.67 9.24,9.8 18.61,19.51 28.44,28.97 -3.09,-13.2 -6.61,-26.16 -10.32,-39.01 -3.67,-12.87 -7.58,-25.62 -11.6,-38.29 0,0 -50.47,-88.51 -48.92,-120.14 1.4,-29.04 14.86,-37.73 22.28,-41.7 4.4,-2.36 12.19,-5.69 22.06,-5.69 6.72,0 14.4,1.55 22.63,6 30.02,16.24 81.11,107.27 82.15,108.56 8.82,10.03 17.85,19.91 27.09,29.69 9.29,9.78 18.69,19.46 28.69,28.84 -2.95,-13.28 -6.45,-26.25 -10.08,-39.13 -3.71,-12.87 -7.56,-25.63 -11.66,-38.26 -0.58,-1.53 -69.42,-144.76 -140.6,-144.76 -1.2,0 -2.42,0.04 -3.62,0.12 -9.43,0.66 -18.14,2.43 -26.46,5.39 l -88.93,-155.97 8.3,-4.6 c 6.43,-3.56 9.16,-10.81 6.09,-16.2 l -141.5,-248.17 c -1.93,-3.39 -5.71,-5.23 -9.85,-5.23 m -15.88,48.25 c -3.34,0 -6.59,-1.73 -8.35,-4.82 -2.6,-4.54 -0.96,-10.3 3.65,-12.85 1.49,-0.82 3.1,-1.22 4.69,-1.22 3.34,0 6.59,1.74 8.34,4.82 2.6,4.55 0.97,10.3 -3.65,12.86 -1.49,0.82 -3.09,1.21 -4.68,1.21 m 122.24,217.81 c -3.35,0 -6.6,-1.74 -8.37,-4.82 -2.57,-4.54 -0.93,-10.3 3.66,-12.85 1.49,-0.83 3.1,-1.22 4.7,-1.22 3.34,0 6.58,1.74 8.34,4.81 2.6,4.55 0.96,10.3 -3.65,12.87 -1.48,0.82 -3.09,1.21 -4.68,1.21"
         style="fill:#0b0805;fill-opacity:1;fill-rule:nonzero;stroke:none"
         id="path118" /><path
         d="m 3583.7449,2378.9086 c -3.51,0 -6.77,1.4 -8.79,4.13 l -170.9,229.48 c -3.73,4.97 -1.9,12.5 4.04,16.8 l 7.68,5.56 -127.99,171.88 -50.37,-36.46 c -3.88,-2.8 -12.53,-6.44 -22.15,-6.43 -9.04,0 -18.93,3.21 -26.48,13.34 l -122.09,145.62 c -17.06,22.89 -4.34,38.46 3.18,43.91 l 151.11,109.38 c 6.2,4.49 12.71,7.18 19.31,7.18 9.83,0 19.83,-6 29.17,-21.01 l 97.54,-150.35 c 19.24,-28.15 2.13,-46.3 -5.41,-51.75 l -47.62,-34.46 128.01,-171.88 7.67,5.56 c 2.69,1.94 5.75,2.89 8.65,2.89 3.51,0 6.78,-1.4 8.82,-4.13 l 170.87,-229.48 c 3.72,-4.97 1.92,-12.49 -4.02,-16.79 l -41.56,-30.09 c -2.7,-1.94 -5.77,-2.9 -8.67,-2.9 m 12.62,49.96 c -1.96,0 -3.95,-0.59 -5.65,-1.83 -4.28,-3.09 -5.2,-8.99 -2.05,-13.2 1.87,-2.51 4.77,-3.85 7.72,-3.85 1.96,0 3.95,0.59 5.66,1.83 4.25,3.08 5.17,9 2.03,13.2 -1.87,2.52 -4.77,3.85 -7.71,3.85 m -150.8,199.66 c -1.97,0 -3.95,-0.6 -5.65,-1.83 -4.24,-3.09 -5.18,-9 -2.05,-13.21 1.87,-2.52 4.78,-3.85 7.72,-3.85 1.97,0 3.96,0.6 5.66,1.84 4.27,3.08 5.21,8.98 2.07,13.19 -1.89,2.52 -4.8,3.86 -7.75,3.86 m -318.59,336.61 c -3.63,0 -7.33,-1.11 -10.52,-3.42 -7.73,-5.61 -9.59,-16.1 -4.14,-23.44 l 92.05,-123.62 c 3.21,-4.3 8.23,-6.56 13.4,-6.56 3.63,0 7.33,1.11 10.53,3.43 7.73,5.6 9.57,16.1 4.12,23.43 l -92.05,123.61 c -3.22,4.31 -8.23,6.57 -13.39,6.57 m 48.07,34.8 c -3.63,0 -7.33,-1.12 -10.52,-3.43 -7.74,-5.6 -9.57,-16.08 -4.1,-23.43 l 92.05,-123.61 c 3.2,-4.31 8.21,-6.57 13.38,-6.57 3.62,0 7.32,1.12 10.52,3.43 7.72,5.59 9.57,16.09 4.1,23.43 l -92.05,123.61 c -3.2,4.31 -8.21,6.57 -13.38,6.57 m 48.08,34.8 c -3.63,0 -7.34,-1.12 -10.54,-3.43 -7.71,-5.59 -9.57,-16.08 -4.1,-23.43 l 92.05,-123.61 c 3.2,-4.3 8.22,-6.57 13.39,-6.57 3.63,0 7.33,1.12 10.52,3.43 7.75,5.6 9.57,16.09 4.1,23.43 l -92.03,123.61 c -3.21,4.31 -8.23,6.57 -13.39,6.57"
         style="fill:#0b0805;fill-opacity:1;fill-rule:nonzero;stroke:none"
         id="path120" /><path
         d="m 3336.6149,1384.5686 c -81.84,0 -155.69,56.41 -164.75,130.05 -6.58,53.61 4.22,126.99 71.58,204.19 0,0 -7.57,-51.47 25.26,-74.7 0,0 -51.37,101.27 11.77,209.18 0,0 14.47,-61.12 29.07,-61.12 1.54,0 3.08,0.68 4.61,2.19 15.99,15.77 46.3,52.29 31.99,102.93 0,0 55.56,-44 33.69,-136.14 0,0 0.96,-0.16 2.64,-0.16 8.51,0 35.5,4.06 49.55,53.29 0,0 31.17,-33.21 0.84,-118.71 0,0 3.56,-1.67 9.15,-1.67 12.03,0 33.44,7.74 48.95,56.46 0,0 56.98,-77.95 29.48,-240.73 -13.48,-79.68 -102,-125.06 -183.83,-125.06 m -49.01,237.37 c -38.2,-40.57 -44.33,-79.16 -40.6,-107.35 5.13,-38.72 47.01,-68.37 93.44,-68.37 46.42,0 98.04,22.99 104.25,65.75 12.5,86 -16.7,126.56 -16.7,126.56 -8.79,-25.61 -20.93,-29.68 -27.75,-29.68 -3.17,0 -5.2,0.88 -5.2,0.88 17.19,44.94 -0.48,62.4 -0.48,62.4 -7.98,-25.87 -23.28,-28.01 -28.11,-28.01 -0.96,0 -1.5,0.09 -1.5,0.09 12.4,48.43 -19.1,71.56 -19.1,71.56 8.12,-26.62 -9.09,-45.82 -18.15,-54.11 -0.87,-0.79 -1.74,-1.15 -2.62,-1.15 -8.28,0 -16.48,32.13 -16.48,32.13 -35.82,-56.73 -6.68,-109.97 -6.68,-109.97 -18.63,12.22 -14.32,39.27 -14.32,39.27"
         style="fill:#0b0805;fill-opacity:1;fill-rule:nonzero;stroke:none"
         id="path122" /><path
         d="m 481.51245,484.05771 c -81.84,0 -155.69,56.41 -164.75,130.05 -6.58,53.61 4.22,126.99 71.58,204.19 0,0 -7.57,-51.47 25.26,-74.7 0,0 -51.37,101.27 11.77,209.18 0,0 14.47,-61.12 29.07,-61.12 1.54,0 3.08,0.68 4.61,2.19 15.99,15.77 46.3,52.29 31.99,102.93 0,0 55.56,-44 33.69,-136.14 0,0 0.96,-0.16 2.64,-0.16 8.51,0 35.5,4.06 49.55,53.29 0,0 31.17,-33.21 0.84,-118.71 0,0 3.56,-1.67 9.15,-1.67 12.03,0 33.44,7.74 48.95,56.46 0,0 56.98,-77.95 29.48,-240.73 -13.48,-79.68 -102,-125.06 -183.83,-125.06 m -49.01,237.37 c -38.2,-40.57 -44.33,-79.16 -40.6,-107.35 5.13,-38.72 47.01,-68.37 93.44,-68.37 46.42,0 98.04,22.99 104.25,65.75 12.5,86 -16.7,126.56 -16.7,126.56 -8.79,-25.61 -20.93,-29.68 -27.75,-29.68 -3.17,0 -5.2,0.88 -5.2,0.88 17.19,44.94 -0.48,62.4 -0.48,62.4 -7.98,-25.87 -23.28,-28.01 -28.11,-28.01 -0.96,0 -1.5,0.09 -1.5,0.09 12.4,48.43 -19.1,71.56 -19.1,71.56 8.12,-26.62 -9.09,-45.82 -18.15,-54.11 -0.87,-0.79 -1.74,-1.15 -2.62,-1.15 -8.28,0 -16.48,32.13 -16.48,32.13 -35.82,-56.73 -6.68,-109.97 -6.68,-109.97 -18.63,12.22 -14.32,39.27 -14.32,39.27"
         style="fill:#0b0805;fill-opacity:1;fill-rule:nonzero;stroke:none"
         id="path122-3" /><path
         d="m 1673.4635,468.0224 c -81.84,0 -155.69,56.41 -164.75,130.05 -6.58,53.61 4.22,126.99 71.58,204.19 0,0 -7.57,-51.47 25.26,-74.7 0,0 -51.37,101.27 11.77,209.18 0,0 14.47,-61.12 29.07,-61.12 1.54,0 3.08,0.68 4.61,2.19 15.99,15.77 46.3,52.29 31.99,102.93 0,0 55.56,-44 33.69,-136.14 0,0 0.96,-0.16 2.64,-0.16 8.51,0 35.5,4.06 49.55,53.29 0,0 31.17,-33.21 0.84,-118.71 0,0 3.56,-1.67 9.15,-1.67 12.03,0 33.44,7.74 48.95,56.46 0,0 56.98,-77.95 29.48,-240.73 -13.48,-79.68 -102,-125.06 -183.83,-125.06 m -49.01,237.37 c -38.2,-40.57 -44.33,-79.16 -40.6,-107.35 5.13,-38.72 47.01,-68.37 93.44,-68.37 46.42,0 98.04,22.99 104.25,65.75 12.5,86 -16.7,126.56 -16.7,126.56 -8.79,-25.61 -20.93,-29.68 -27.75,-29.68 -3.17,0 -5.2,0.88 -5.2,0.88 17.19,44.94 -0.48,62.4 -0.48,62.4 -7.98,-25.87 -23.28,-28.01 -28.11,-28.01 -0.96,0 -1.5,0.09 -1.5,0.09 12.4,48.43 -19.1,71.56 -19.1,71.56 8.12,-26.62 -9.09,-45.82 -18.15,-54.11 -0.87,-0.79 -1.74,-1.15 -2.62,-1.15 -8.28,0 -16.48,32.13 -16.48,32.13 -35.82,-56.73 -6.68,-109.97 -6.68,-109.97 -18.63,12.22 -14.32,39.27 -14.32,39.27"
         style="fill:#0b0805;fill-opacity:1;fill-rule:nonzero;stroke:none"
         id="path122-3-6" /><path
         d="m 2889.44,467.40086 c -81.84,0 -155.69,56.41 -164.75,130.05 -6.58,53.61 4.22,126.99 71.58,204.19 0,0 -7.57,-51.47 25.26,-74.7 0,0 -51.37,101.27 11.77,209.18 0,0 14.47,-61.12 29.07,-61.12 1.54,0 3.08,0.68 4.61,2.19 15.99,15.77 46.3,52.29 31.99,102.93 0,0 55.56,-44 33.69,-136.14 0,0 0.96,-0.16 2.64,-0.16 8.51,0 35.5,4.06 49.55,53.29 0,0 31.17,-33.21 0.84,-118.71 0,0 3.56,-1.67 9.15,-1.67 12.03,0 33.44,7.74 48.95,56.46 0,0 56.98,-77.95 29.48,-240.73 -13.48,-79.68 -102,-125.06 -183.83,-125.06 m -49.01,237.37 c -38.2,-40.57 -44.33,-79.16 -40.6,-107.35 5.13,-38.72 47.01,-68.37 93.44,-68.37 46.42,0 98.04,22.99 104.25,65.75 12.5,86 -16.7,126.56 -16.7,126.56 -8.79,-25.61 -20.93,-29.68 -27.75,-29.68 -3.17,0 -5.2,0.88 -5.2,0.88 17.19,44.94 -0.48,62.4 -0.48,62.4 -7.98,-25.87 -23.28,-28.01 -28.11,-28.01 -0.96,0 -1.5,0.09 -1.5,0.09 12.4,48.43 -19.1,71.56 -19.1,71.56 8.12,-26.62 -9.09,-45.82 -18.15,-54.11 -0.87,-0.79 -1.74,-1.15 -2.62,-1.15 -8.28,0 -16.48,32.13 -16.48,32.13 -35.82,-56.73 -6.68,-109.97 -6.68,-109.97 -18.63,12.22 -14.32,39.27 -14.32,39.27"
         style="fill:#0b0805;fill-opacity:1;fill-rule:nonzero;stroke:none"
         id="path122-3-7" /><path
         d="m 3345.9849,325.30859 h -37.28 v 0.0117 h 37.29 l -0.01,-0.0117"
         style="fill:#4f4c4c;fill-opacity:1;fill-rule:nonzero;stroke:none"
         id="path124" /><path
         d="m 3618.6449,616.00759 c -3.51,0 -6.77,1.403 -8.79,4.129 l -170.9,229.473 c -3.73,4.988 -1.91,12.508 4.04,16.808 l 7.68,5.563 -127.99,171.87901 -50.37,-36.461 c -3.87,-2.801 -12.53,-6.43 -22.14,-6.43 -9.05,0 -18.94,3.211 -26.49,13.34 l -122.09,145.621 c -17.05,22.891 -4.34,38.461 3.18,43.91 l 151.11,109.379 c 6.2,4.488 12.72,7.192 19.31,7.192 9.83,0 19.83,-6 29.17,-21.02 l 97.54,-150.34 c 19.22,-28.16 2.13,-46.312 -5.41,-51.762 l -47.62,-34.46 128.01,-171.87901 7.68,5.558 c 2.68,1.942 5.75,2.891 8.64,2.891 3.52,0 6.78,-1.399 8.82,-4.129 l 170.88,-229.481 c 3.71,-4.968 1.91,-12.492 -4.03,-16.789 l -41.56,-30.089 c -2.69,-1.942 -5.77,-2.903 -8.67,-2.903 m 12.63,49.961 c -1.97,0 -3.95,-0.59 -5.66,-1.828 -4.28,-3.082 -5.19,-8.992 -2.05,-13.203 1.88,-2.508 4.78,-3.848 7.72,-3.848 1.96,0 3.95,0.59 5.66,1.828 4.26,3.082 5.18,9 2.03,13.2 -1.87,2.523 -4.77,3.851 -7.7,3.851 m -150.81,199.66 c -1.96,0 -3.95,-0.601 -5.65,-1.832 -4.24,-3.09 -5.18,-9 -2.05,-13.207 1.87,-2.519 4.78,-3.851 7.72,-3.851 1.97,0 3.96,0.601 5.66,1.84 4.28,3.082 5.21,8.98 2.07,13.191 -1.89,2.519 -4.8,3.859 -7.75,3.859 m -318.59,336.61001 c -3.63,0 -7.33,-1.11 -10.52,-3.418 -7.73,-5.614 -9.59,-16.102 -4.14,-23.442 l 92.05,-123.621 c 3.21,-4.301 8.23,-6.558 13.4,-6.558 3.63,0 7.34,1.121 10.53,3.429 7.73,5.602 9.57,16.102 4.12,23.43 l -92.07,123.609 c -3.2,4.313 -8.21,6.571 -13.37,6.571 m 48.07,34.8 c -3.63,0 -7.33,-1.109 -10.52,-3.429 -7.73,-5.602 -9.57,-16.09 -4.1,-23.422 l 92.03,-123.617 c 3.21,-4.313 8.23,-6.571 13.39,-6.571 3.63,0 7.33,1.118 10.52,3.43 7.73,5.59 9.57,16.09 4.12,23.43 l -92.05,123.609 c -3.2,4.309 -8.22,6.57 -13.39,6.57 m 48.08,34.809 c -3.63,0 -7.33,-1.117 -10.53,-3.437 -7.72,-5.59 -9.57,-16.09 -4.11,-23.43 l 92.06,-123.613 c 3.2,-4.309 8.22,-6.571 13.38,-6.571 3.63,0 7.33,1.121 10.52,3.434 7.76,5.598 9.57,16.09 4.1,23.43 l -92.03,123.609 c -3.21,4.309 -8.23,6.578 -13.39,6.578"
         style="fill:#0b0805;fill-opacity:1;fill-rule:nonzero;stroke:none"
         id="path128" /><path
         d="m 3861.4149,1328.2786 c -13.55,22.6 -9.96,54.34 0,85.45 v -85.45"
         style="fill:#0b0805;fill-opacity:1;fill-rule:nonzero;stroke:none"
         id="path130" /></g></g></svg>
