<?xml version="1.0" encoding="iso-8859-1"?>
<!-- Generator: Adobe Illustrator 18.0.0, SVG Export Plug-In . SVG Version: 6.00 Build 0)  -->
<!DOCTYPE svg PUBLIC "-//W3C//DTD SVG 1.1//EN" "http://www.w3.org/Graphics/SVG/1.1/DTD/svg11.dtd">
<svg version="1.1" id="Capa_1" xmlns="http://www.w3.org/2000/svg" xmlns:xlink="http://www.w3.org/1999/xlink" x="0px" y="0px"
	 viewBox="0 0 292.907 292.907" style="enable-background:new 0 0 292.907 292.907;" xml:space="preserve">
<g>
	<path d="M84.283,74.379c16.232-2.574,27.311-17.813,24.735-34.055c-1.636-10.315-8.402-18.542-17.285-22.51
		c1.425-1.316,3.085-2.59,5.06-3.781c0.939-0.566,1.464-1.626,1.344-2.717c-0.121-1.09-0.865-2.011-1.905-2.358
		C91.202,7.281,85.53,8.124,80.348,9.996c0.638-1.84,1.504-3.755,2.689-5.744c0.562-0.942,0.525-2.125-0.095-3.029
		c-0.62-0.905-1.71-1.367-2.792-1.183C69.427,1.866,61.3,14.317,58.407,21.455c-0.515,1.271-0.885,2.571-1.112,3.868
		c-5.652,6.423-8.509,15.22-7.065,24.322C52.805,65.889,68.054,76.953,84.283,74.379z"/>
	<path d="M287.695,68.968c-4.185-3.888-10.732-3.65-14.622,0.538l-34.78,37.436c-2.904-2.068-6.261-3.482-9.85-4.052l-15.145-2.401
		c-3.629-0.575-7.303-0.271-10.737,0.827l-21.514-46.402c-2.404-5.184-8.555-7.438-13.738-5.035
		c-5.184,2.403-7.438,8.555-5.035,13.738l24.928,53.767c-0.54,1.982,0.149-2.066-8.666,55.641l-13.608,16.735l0.4,0.492
		c3.77,4.636,5.827,10.429,5.827,16.403v49.844c0.169,0.006,0.335,0.025,0.506,0.025c7.143,0,12.933-5.79,12.933-12.933v-37.019
		l14.422-17.736l12.815,2.447l-3.368,21.24c-0.114,0.724-0.168,1.456-0.158,2.189l0.587,46.354
		c0.09,7.086,5.861,12.77,12.929,12.768c0.055,0,0.111,0,0.167-0.001c7.142-0.09,12.858-5.953,12.768-13.096l-0.572-45.252
		c0.77-4.855,13.787-86.709,13.868-88.646l40.183-43.251C292.121,79.403,291.881,72.858,287.695,68.968z"/>
	<path d="M222.371,91.779c13.521,2.145,26.226-7.073,28.372-20.605c1.202-7.584-1.178-14.913-5.887-20.264
		c-0.189-1.08-0.498-2.164-0.927-3.222c-2.41-5.945-9.182-16.319-18.114-17.841c-0.901-0.153-1.81,0.231-2.326,0.985
		c-0.517,0.754-0.547,1.738-0.079,2.523c0.988,1.659,1.711,3.256,2.242,4.791c-4.317-1.561-9.043-2.268-13.234-0.87
		c-0.867,0.29-1.487,1.057-1.588,1.965c-0.1,0.909,0.338,1.792,1.12,2.264c1.645,0.992,3.027,2.054,4.215,3.15
		c-7.4,3.304-13.038,10.158-14.4,18.752C199.619,76.94,208.849,89.635,222.371,91.779z"/>
	<path d="M136.902,171.898c-10.396-66.8-10.396-66.8-10.396-66.8l29.915-64.523c2.886-6.223,0.18-13.605-6.043-16.49
		c-6.22-2.885-13.605-0.182-16.49,6.043l-25.823,55.699c-4.123-1.319-8.534-1.683-12.891-0.992l-18.178,2.882
		c-4.308,0.684-8.348,2.364-11.835,4.849L23.426,47.643c-4.67-5.025-12.526-5.313-17.552-0.646
		C0.85,51.666,0.561,59.524,5.229,64.549l48.233,51.916c0,0,7.209,46.895,16.646,106.405l-0.688,54.317
		c-0.108,8.572,6.753,15.61,15.326,15.719c0.066,0.001,0.134,0.001,0.2,0.001c8.481,0,15.411-6.821,15.519-15.327l0.704-55.64
		c0.012-0.88-0.053-1.759-0.19-2.628l-4.043-25.495l15.384-2.938l17.31,21.289v44.435c0,8.573,6.95,15.523,15.523,15.523
		c8.573,0,15.523-6.95,15.523-15.523v-49.949c0-3.567-1.228-7.026-3.478-9.794L136.902,171.898z"/>
</g>
<g>
</g>
<g>
</g>
<g>
</g>
<g>
</g>
<g>
</g>
<g>
</g>
<g>
</g>
<g>
</g>
<g>
</g>
<g>
</g>
<g>
</g>
<g>
</g>
<g>
</g>
<g>
</g>
<g>
</g>
</svg>
