<svg height="512" viewBox="0 0 512 512" width="512" xmlns="http://www.w3.org/2000/svg"><path d="m357.9 192.569-57.7-57.706a160 160 0 0 0 -113.141-46.863h-27.059a144 144 0 0 0 -144 144v48a144 144 0 0 0 144 144h256a80 80 0 0 0 80-80v-48a80 80 0 0 0 -80-80h-1.53a80 80 0 0 1 -56.57-23.431z" fill="#734119"/><path d="m357.9 192.569-57.7-57.706a160 160 0 0 0 -113.141-46.863h-27.059a144 144 0 0 0 -144 144 144 144 0 0 0 144 144h256a80 80 0 0 0 80-80 80 80 0 0 0 -80-80h-1.53a80 80 0 0 1 -56.57-23.431z" fill="#fab991"/><path d="m160 344a112 112 0 0 1 0-224h27.059a127.161 127.161 0 0 1 90.51 37.49l57.7 57.706a111.269 111.269 0 0 0 79.2 32.8h1.531a48 48 0 0 1 0 96z" fill="#e13741"/><circle cx="160" cy="232" fill="#fab991" r="48"/><circle cx="160" cy="232" fill="#e13741" r="24"/></svg>