<svg id="Capa_1" enable-background="new 0 0 512 512" height="512" viewBox="0 0 512 512" width="512" xmlns="http://www.w3.org/2000/svg"><g><path d="m339.519 285.278c2.453-5.348 3.717-11.099 3.717-16.909v-102.801c0-31.132-19.019-58.147-46.883-71.634-7.282-3.525-11.967-10.834-11.967-18.924v-38.413h-56.776v38.413c0 8.09-4.685 15.4-11.967 18.924-27.864 13.487-46.883 40.502-46.883 71.634v102.801c0 5.81 1.264 11.561 3.717 16.909l1.775 3.871c5.326 11.614 5.281 24.874-.719 36.203-3.14 5.929-4.773 12.445-4.773 19.048v103.255 32.172c0 17.768 15.555 32.171 34.743 32.171 8.388 0 16.077-2.756 22.078-7.341 2.445-1.868 5.894-1.868 8.339 0 6.002 4.585 13.69 7.341 22.078 7.341 8.388 0 16.077-2.757 22.078-7.341 2.445-1.868 5.894-1.868 8.339 0 6.002 4.585 13.69 7.341 22.078 7.341 19.188 0 34.742-14.404 34.742-32.171v-134.761c0-6.746-1.471-13.465-4.673-19.525-5.954-11.269-6.331-24.375-1.036-35.92z" fill="#f3f0f3"/><path d="m337.528 289.617c-5.291 11.549-4.92 24.652 1.04 35.923 3.201 6.062 4.673 12.784 4.673 19.526v134.766c0 8.883-3.891 16.922-10.18 22.748-6.289 5.815-14.976 9.418-24.569 9.418-3.592 0-7.051-.504-10.303-1.451 5.435-1.565 10.303-4.333 14.235-7.967 6.279-5.826 10.169-13.865 10.169-22.748v-134.767c0-6.742-1.472-13.463-4.673-19.526-5.949-11.271-6.33-24.374-1.029-35.923l1.987-4.344c2.45-5.342 3.716-11.096 3.716-16.901v-102.805c0-13.247-3.75-26.18-11.457-37.01-7.544-10.602-18.135-18.652-29.464-24.851-5.722-3.131-10.867-6.67-14.409-12.218-3.197-5.008-3.514-10.669-3.514-16.478v-32.114h20.637v32.114c0 8.09 4.683 15.398 11.971 18.929 27.863 13.484 46.884 40.503 46.884 71.629v102.806c0 5.805-1.266 11.559-3.726 16.901z" fill="#e2dee2"/><path d="m337.528 289.62c-5.296 11.545-4.918 24.65 1.033 35.917 3.199 6.061 4.67 12.787 4.67 19.533v134.759c0 8.882-3.885 16.92-10.174 22.742-6.279 5.822-14.963 9.429-24.56 9.429-8.396 0-16.076-2.762-22.087-7.342-2.444-1.868-5.892-1.868-8.336 0-3 2.285-6.418 4.123-10.144 5.385-3.726 1.272-7.74 1.957-11.933 1.957-8.386 0-16.076-2.762-22.077-7.342-2.444-1.868-5.892-1.868-8.336 0-6.011 4.58-13.691 7.342-22.087 7.342-19.185 0-34.734-14.406-34.734-32.171v-135.425c0-6.607 1.629-13.125 4.769-19.056 6.001-11.326 6.041-24.59.715-36.195l-1.768-3.875c-2.454-5.345-3.716-11.098-3.716-16.91v-102.802c0-20.785 8.475-39.732 22.404-54.049h129.658c13.93 14.317 22.405 33.264 22.405 54.049v102.802c0 5.812-1.262 11.565-3.716 16.91z" fill="#685e68"/><path d="m337.528 289.617c-5.526 12.084-5.137 24.244 1.029 35.922 3.201 6.062 4.673 12.784 4.673 19.526v134.766c0 4.992-1.225 9.727-3.417 13.937-1.47 2.817-3.361 5.409-5.599 7.678-.717.727-1.549 1.505-2.357 2.193-6.165 5.187-14.359 8.358-23.365 8.358-2.7 0-5.427-.282-8.059-.875-.731-.165-1.441-.35-2.151-.556-.031 0-.062-.01-.093-.021 5.435-1.565 10.303-4.333 14.235-7.967 6.279-5.826 10.169-13.865 10.169-22.748v-134.765c0-6.742-1.472-13.463-4.673-19.526-5.949-11.271-6.33-24.374-1.029-35.923l1.987-4.344c2.45-5.342 3.716-11.096 3.716-16.901v-102.805c0-13.247-3.747-26.185-11.456-37.014-4.704-6.618-10.602-12.238-17.117-17.035h26.803c.082.082.154.165.227.247 4.896 5.6 9.418 11.021 12.99 17.662 2.576 4.79 4.824 10.271 6.31 15.471 1.92 6.72 2.882 13.674 2.882 20.668v102.806c0 4.714-.834 9.397-2.46 13.854-.924 2.527-2.127 4.947-3.245 7.392z" fill="#554e56"/><path d="m298.315 37.395c0 3.036-2.658 5.498-5.937 5.498h-36.381-36.381c-3.279 0-5.937-2.461-5.937-5.498v-31.897c0-3.036 2.658-5.498 5.937-5.498h72.761c3.279 0 5.937 2.461 5.937 5.498v31.897z" fill="#e94444"/><path d="m298.312 5.5v31.898c0 3.036-2.656 5.496-5.929 5.496h-20.586c3.273 0 5.929-2.46 5.929-5.496v-31.898c0-3.036-2.656-5.496-5.929-5.496h20.586c3.273 0 5.929 2.46 5.929 5.496z" fill="#d83131"/><path d="m168.759 167.895h174.477v101.577h-174.477z" fill="#e94444"/><path d="m322.65 167.895h20.586v101.577h-20.586z" fill="#d83131"/></g></svg>